solid DrakFinSkid
facet normal 0.0 0.0 1.0
  outer loop
    vertex 158.0810370147756 63.98516447531545 15.0
    vertex 68.01767513127062 70.98516447531544 15.0
    vertex 68.01767513127062 63.98516447531545 15.0
  endloop
endfacet
facet normal 0.0 0.0 1.0
  outer loop
    vertex 68.01767513127062 70.98516447531544 15.0
    vertex 158.0810370147756 63.98516447531545 15.0
    vertex 158.0810370147756 70.98516447531544 15.0
  endloop
endfacet
facet normal 2.279439712525521e-15 -2.2484492882728494e-14 -1.0
  outer loop
    vertex 152.8561870951029 73.69707271402368 9.999999999999996
    vertex 71.42432203430663 61.29984371402365 10.000000000000004
    vertex 71.42432203430663 73.70349771402367 9.999999999999163
  endloop
endfacet
facet normal 2.279439712525521e-15 -2.2484492882728494e-14 -1.0
  outer loop
    vertex 71.42432203430663 61.29984371402365 10.000000000000004
    vertex 152.8561870951029 73.69707271402368 9.999999999999996
    vertex 152.8561870951029 61.299843714023666 9.999999999999996
  endloop
endfacet
facet normal -0.056545069682192944 -2.2293765621558255e-14 -0.9984000476235145
  outer loop
    vertex 64.57515986667757 73.70349771402368 10.108233998021316
    vertex 63.42874342831938 61.299843714023666 10.173162077248595
    vertex 63.42874342831938 73.70031871402365 10.173162077248602
  endloop
endfacet
facet normal -0.07536214173844079 -1.1384678291986648e-14 -0.9971562302831966
  outer loop
    vertex 63.42874342831938 61.299843714023666 10.173162077248595
    vertex 64.57515986667757 73.70349771402368 10.108233998021316
    vertex 64.57515986667757 61.299843714023666 10.108233998022156
  endloop
endfacet
facet normal 1.0 0.0 0.0
  outer loop
    vertex 158.0810370147756 61.299843714023666 14.234601318172823
    vertex 158.0810370147756 63.98516447531545 15.0
    vertex 158.0810370147756 61.299843714023666 25.0
  endloop
endfacet
facet normal 1.0 0.0 0.0
  outer loop
    vertex 158.0810370147756 63.98516447531545 15.0
    vertex 158.0810370147756 61.299843714023666 14.234601318172823
    vertex 158.0810370147756 73.69707271402368 14.234601318172823
  endloop
endfacet
facet normal 1.0 0.0 0.0
  outer loop
    vertex 158.0810370147756 63.98516447531545 15.0
    vertex 158.0810370147756 73.69707271402368 14.234601318172823
    vertex 158.0810370147756 70.98516447531544 15.0
  endloop
endfacet
facet normal 1.0 0.0 0.0
  outer loop
    vertex 158.0810370147756 70.98516447531544 15.0
    vertex 158.0810370147756 73.69707271402368 14.234601318172823
    vertex 158.0810370147756 70.98516447531544 25.0
  endloop
endfacet
facet normal 1.0 0.0 0.0
  outer loop
    vertex 158.0810370147756 70.98516447531544 25.0
    vertex 158.0810370147756 73.69707271402368 14.234601318172823
    vertex 158.0810370147756 73.70031871402365 25.0
  endloop
endfacet
facet normal 1.0 0.0 0.0
  outer loop
    vertex 158.0810370147756 63.98516447531545 25.0
    vertex 158.0810370147756 61.299843714023666 25.0
    vertex 158.0810370147756 63.98516447531545 15.0
  endloop
endfacet
facet normal -0.36828928906225544 -1.3893345877251359e-16 -0.929711245259526
  outer loop
    vertex 45.59190065818294 73.70031871402367 14.280004356948838
    vertex 43.47314086525069 61.29984371402367 15.16589496097024
    vertex 43.47314086525069 73.70031871402367 15.165894960970238
  endloop
endfacet
facet normal -0.40305662832485617 2.3513894997754155e-14 -0.9151750402865011
  outer loop
    vertex 43.47314086525069 61.29984371402367 15.16589496097024
    vertex 45.59190065818294 73.70031871402367 14.280004356948838
    vertex 45.59190065818294 61.29984371402367 14.280004356948842
  endloop
endfacet
facet normal -0.07534558253894279 -1.1394287007589789e-14 -0.9971574816406221
  outer loop
    vertex 63.42874342831938 73.70031871402365 10.173162077248602
    vertex 61.14243780518379 61.299843714023666 10.38938376917208
    vertex 61.14243780518379 73.70031871402365 10.389383769172085
  endloop
endfacet
facet normal -0.11290920052716577 -4.706976726817695e-16 -0.9936053101892705
  outer loop
    vertex 61.14243780518379 61.299843714023666 10.38938376917208
    vertex 63.42874342831938 73.70031871402365 10.173162077248602
    vertex 63.42874342831938 61.299843714023666 10.173162077248595
  endloop
endfacet
facet normal -0.2971769284939299 -1.5173954006230821e-16 -0.9548224301779435
  outer loop
    vertex 49.922055804467064 73.70031871402365 12.750940692984216
    vertex 47.742558663206125 61.29984371402367 13.474637752308832
    vertex 47.742558663206125 73.70031871402367 13.47463775230883
  endloop
endfacet
facet normal -0.33296991542650695 -5.272650417542846e-19 -0.9429374504286406
  outer loop
    vertex 47.742558663206125 61.29984371402367 13.474637752308832
    vertex 49.922055804467064 73.70031871402365 12.750940692984216
    vertex 49.922055804467064 61.299843714023666 12.75094069298422
  endloop
endfacet
facet normal -0.11290920052716577 -4.706976726817695e-16 -0.9936053101892705
  outer loop
    vertex 61.14243780518379 73.70031871402365 10.389383769172085
    vertex 58.86591145538682 61.299843714023666 10.691663442851672
    vertex 58.86591145538682 73.70031871402365 10.691663442851677
  endloop
endfacet
facet normal -0.1502956583239432 -4.68506721412187e-16 -0.9886410951851905
  outer loop
    vertex 58.86591145538682 61.299843714023666 10.691663442851672
    vertex 61.14243780518379 73.70031871402365 10.389383769172085
    vertex 61.14243780518379 61.299843714023666 10.38938376917208
  endloop
endfacet
facet normal -0.1874683369805092 -4.656493705592333e-16 -0.9822706463239967
  outer loop
    vertex 56.60240248873932 73.70031871402365 11.079571138503677
    vertex 54.35513049924792 61.299843714023666 11.552555099845955
    vertex 54.35513049924792 73.70031871402365 11.55255509984596
  endloop
endfacet
facet normal -0.22437436242603132 -3.959098464677487e-16 -0.9745030248726333
  outer loop
    vertex 54.35513049924792 61.299843714023666 11.552555099845955
    vertex 56.60240248873932 73.70031871402365 11.079571138503677
    vertex 56.60240248873932 61.299843714023666 11.079571138503672
  endloop
endfacet
facet normal -0.1502956583239432 -4.68506721412187e-16 -0.9886410951851905
  outer loop
    vertex 58.86591145538682 73.70031871402365 10.691663442851677
    vertex 56.60240248873932 61.299843714023666 11.079571138503672
    vertex 56.60240248873932 73.70031871402365 11.079571138503677
  endloop
endfacet
facet normal -0.1874683369805092 -4.656493705592333e-16 -0.9822706463239967
  outer loop
    vertex 56.60240248873932 61.299843714023666 11.079571138503672
    vertex 58.86591145538682 73.70031871402365 10.691663442851677
    vertex 58.86591145538682 61.299843714023666 10.691663442851672
  endloop
endfacet
facet normal -0.22437436242603132 -3.959098464677487e-16 -0.9745030248726333
  outer loop
    vertex 54.35513049924792 73.70031871402365 11.55255509984596
    vertex 52.12729198559464 61.299843714023666 12.109942558910868
    vertex 52.12729198559464 73.70031871402365 12.109942558910875
  endloop
endfacet
facet normal -0.26096123987472136 -2.804128053651047e-16 -0.9653492794232812
  outer loop
    vertex 52.12729198559464 61.299843714023666 12.109942558910868
    vertex 54.35513049924792 73.70031871402365 11.55255509984596
    vertex 54.35513049924792 61.299843714023666 11.552555099845955
  endloop
endfacet
facet normal -0.26096123987472136 -2.804128053651047e-16 -0.9653492794232812
  outer loop
    vertex 52.12729198559464 73.70031871402365 12.109942558910875
    vertex 49.922055804467064 61.299843714023666 12.75094069298422
    vertex 49.922055804467064 73.70031871402365 12.750940692984216
  endloop
endfacet
facet normal -0.29717692849392985 -1.5173954006230846e-16 -0.9548224301779435
  outer loop
    vertex 49.922055804467064 61.299843714023666 12.75094069298422
    vertex 52.12729198559464 73.70031871402365 12.109942558910875
    vertex 52.12729198559464 61.299843714023666 12.109942558910868
  endloop
endfacet
facet normal -0.33296991542650695 -5.272650417540664e-19 -0.9429374504286405
  outer loop
    vertex 47.742558663206125 73.70031871402367 13.47463775230883
    vertex 45.59190065818294 61.29984371402367 14.280004356948842
    vertex 45.59190065818294 73.70031871402367 14.280004356948838
  endloop
endfacet
facet normal -0.36828928906225544 -1.3893345877251359e-16 -0.929711245259526
  outer loop
    vertex 45.59190065818294 61.29984371402367 14.280004356948842
    vertex 47.742558663206125 73.70031871402367 13.47463775230883
    vertex 47.742558663206125 61.29984371402367 13.474637752308832
  endloop
endfacet
facet normal -3.434186231205608e-16 -1.9883424750565207e-27 1.0
  outer loop
    vertex 158.0810370147756 70.98516447531544 25.0
    vertex 36.38929298854368 73.70031871402321 24.999999999999943
    vertex 36.38929298854367 70.985164475315 24.999999999999943
  endloop
endfacet
facet normal -3.434186231205608e-16 -1.9883424750565207e-27 1.0
  outer loop
    vertex 36.38929298854368 73.70031871402321 24.999999999999943
    vertex 158.0810370147756 70.98516447531544 25.0
    vertex 158.0810370147756 73.70031871402365 25.0
  endloop
endfacet
facet normal 0.12131360302030317 0.0 0.9926142300623302
  outer loop
    vertex 59.11272358008317 63.98516447531545 15.976229029084823
    vertex 56.89048977103824 70.98516447531544 16.25482878647187
    vertex 56.89048977103824 63.98516447531545 16.25482878647187
  endloop
endfacet
facet normal 0.1274761156178698 0.0 0.9918416405591064
  outer loop
    vertex 56.89048977103824 70.98516447531544 16.25482878647187
    vertex 59.11272358008317 63.98516447531545 15.976229029084823
    vertex 59.11272358008317 70.98516447531544 15.976229029084823
  endloop
endfacet
facet normal 0.1336337110211026 0.0 0.991030792295945
  outer loop
    vertex 54.67002912762076 63.98516447531545 16.54722484990731
    vertex 52.45142730067178 70.98516447531544 16.853405940664295
    vertex 52.45142730067178 63.98516447531545 16.853405940664295
  endloop
endfacet
facet normal 0.13978615171022715 0.0 0.9901817165500711
  outer loop
    vertex 52.45142730067178 70.98516447531544 16.853405940664295
    vertex 54.67002912762076 63.98516447531545 16.54722484990731
    vertex 54.67002912762076 70.98516447531544 16.54722484990731
  endloop
endfacet
facet normal 0.1274761156178698 0.0 0.9918416405591064
  outer loop
    vertex 56.89048977103824 63.98516447531545 16.25482878647187
    vertex 54.67002912762076 70.98516447531544 16.54722484990731
    vertex 54.67002912762076 63.98516447531545 16.54722484990731
  endloop
endfacet
facet normal 0.1336337110211026 0.0 0.991030792295945
  outer loop
    vertex 54.67002912762076 70.98516447531544 16.54722484990731
    vertex 56.89048977103824 63.98516447531545 16.25482878647187
    vertex 56.89048977103824 70.98516447531544 16.25482878647187
  endloop
endfacet
facet normal 0.1643396240827237 0.0 0.9864038158666811
  outer loop
    vertex 43.59731859554541 63.98516447531545 18.21573640131949
    vertex 41.38929298854433 70.98516447531544 18.590654853394025
    vertex 41.38929298854433 63.98516447531545 18.590654853394025
  endloop
endfacet
facet normal 0.1674019870449017 0.0 0.9858887233016811
  outer loop
    vertex 41.38929298854433 70.98516447531544 18.590654853394025
    vertex 43.59731859554541 63.98516447531545 18.21573640131949
    vertex 43.59731859554541 70.98516447531544 18.21573640131949
  endloop
endfacet
facet normal 0.15207461987067863 0.0 0.9883690150906133
  outer loop
    vertex 48.02014233773756 63.98516447531545 17.507075431011103
    vertex 45.807630131728125 70.98516447531544 17.854538616309537
    vertex 45.807630131728125 63.98516447531545 17.854538616309537
  endloop
endfacet
facet normal 0.1582101733332801 0.0 0.9874054592991947
  outer loop
    vertex 45.807630131728125 70.98516447531544 17.854538616309537
    vertex 48.02014233773756 63.98516447531545 17.507075431011103
    vertex 48.02014233773756 70.98516447531544 17.507075431011103
  endloop
endfacet
facet normal 0.1151464109378016 0.0 0.9933485310041704
  outer loop
    vertex 61.33664483551737 63.98516447531545 15.711436324301484
    vertex 59.11272358008317 70.98516447531544 15.976229029084823
    vertex 59.11272358008317 63.98516447531545 15.976229029084823
  endloop
endfacet
facet normal 0.12131360302030317 0.0 0.9926142300623302
  outer loop
    vertex 59.11272358008317 70.98516447531544 15.976229029084823
    vertex 61.33664483551737 63.98516447531545 15.711436324301484
    vertex 61.33664483551737 70.98516447531544 15.711436324301484
  endloop
endfacet
facet normal 0.1089747772602734 0.0 0.9940445150601023
  outer loop
    vertex 63.56216775301204 63.98516447531545 15.460460886091795
    vertex 61.33664483551737 70.98516447531544 15.711436324301484
    vertex 61.33664483551737 63.98516447531545 15.711436324301484
  endloop
endfacet
facet normal 0.1151464109378016 0.0 0.9933485310041704
  outer loop
    vertex 61.33664483551737 70.98516447531544 15.711436324301484
    vertex 63.56216775301204 63.98516447531545 15.460460886091795
    vertex 63.56216775301204 70.98516447531544 15.460460886091795
  endloop
endfacet
facet normal 0.10279894004897225 0.0 0.9947021553836143
  outer loop
    vertex 65.78920648645669 63.98516447531545 15.223312395445632
    vertex 63.56216775301204 70.98516447531544 15.460460886091795
    vertex 63.56216775301204 63.98516447531545 15.460460886091795
  endloop
endfacet
facet normal 0.1089747772602734 0.0 0.9940445150601023
  outer loop
    vertex 63.56216775301204 70.98516447531544 15.460460886091795
    vertex 65.78920648645669 63.98516447531545 15.223312395445632
    vertex 65.78920648645669 70.98516447531544 15.223312395445632
  endloop
endfacet
facet normal 0.09970951955686477 0.0 0.9950165886605807
  outer loop
    vertex 68.01767513127062 63.98516447531545 15.0
    vertex 65.78920648645669 70.98516447531544 15.223312395445632
    vertex 65.78920648645669 63.98516447531545 15.223312395445632
  endloop
endfacet
facet normal 0.10279894004897225 0.0 0.9947021553836143
  outer loop
    vertex 65.78920648645669 70.98516447531544 15.223312395445632
    vertex 68.01767513127062 63.98516447531545 15.0
    vertex 68.01767513127062 70.98516447531544 15.0
  endloop
endfacet
facet normal 0.1459332003644005 0.0 0.9892944460732628
  outer loop
    vertex 50.23476986933137 63.98516447531545 17.173360248279995
    vertex 48.02014233773756 70.98516447531544 17.507075431011103
    vertex 48.02014233773756 63.98516447531545 17.507075431011103
  endloop
endfacet
facet normal 0.15207461987067863 0.0 0.9883690150906133
  outer loop
    vertex 48.02014233773756 70.98516447531544 17.507075431011103
    vertex 50.23476986933137 63.98516447531545 17.173360248279995
    vertex 50.23476986933137 70.98516447531544 17.173360248279995
  endloop
endfacet
facet normal 0.13978615171022715 0.0 0.9901817165500711
  outer loop
    vertex 52.45142730067178 63.98516447531545 16.853405940664295
    vertex 50.23476986933137 70.98516447531544 17.173360248279995
    vertex 50.23476986933137 63.98516447531545 17.173360248279995
  endloop
endfacet
facet normal 0.1459332003644005 0.0 0.9892944460732628
  outer loop
    vertex 50.23476986933137 70.98516447531544 17.173360248279995
    vertex 52.45142730067178 63.98516447531545 16.853405940664295
    vertex 52.45142730067178 70.98516447531544 16.853405940664295
  endloop
endfacet
facet normal 0.1582101733332801 0.0 0.9874054592991947
  outer loop
    vertex 45.807630131728125 63.98516447531545 17.854538616309537
    vertex 43.59731859554541 70.98516447531544 18.21573640131949
    vertex 43.59731859554541 63.98516447531545 18.21573640131949
  endloop
endfacet
facet normal 0.1643396240827237 0.0 0.9864038158666811
  outer loop
    vertex 43.59731859554541 70.98516447531544 18.21573640131949
    vertex 45.807630131728125 63.98516447531545 17.854538616309537
    vertex 45.807630131728125 70.98516447531544 17.854538616309537
  endloop
endfacet
facet normal -3.6149328749532717e-16 1.3489660983996617e-27 1.0
  outer loop
    vertex 36.38929298854367 61.29984371402406 24.999999999999943
    vertex 158.0810370147756 63.98516447531545 25.0
    vertex 36.38929298854367 63.985164475315834 24.999999999999943
  endloop
endfacet
facet normal -3.6149328749532717e-16 1.3489660983996617e-27 1.0
  outer loop
    vertex 158.0810370147756 63.98516447531545 25.0
    vertex 36.38929298854367 61.29984371402406 24.999999999999943
    vertex 158.0810370147756 61.299843714023666 25.0
  endloop
endfacet
facet normal -1.0 5.0146582032983887e-14 -2.4078315977952707e-14
  outer loop
    vertex 36.38929298854367 63.985164475315834 24.999999999999943
    vertex 36.38929298854367 61.31160471402326 20.56552474092595
    vertex 36.38929298854367 61.29984371402406 24.999999999999943
  endloop
endfacet
facet normal -1.0 5.0146582032983887e-14 -2.4078315977952707e-14
  outer loop
    vertex 36.38929298854367 61.31160471402326 20.56552474092595
    vertex 36.38929298854367 63.985164475315834 24.999999999999943
    vertex 36.389292988543914 63.985164475316 20.565524740927238
  endloop
endfacet
facet normal -0.40308481145398534 2.3552919022594494e-14 -0.9151626275013119
  outer loop
    vertex 43.47314086525069 73.70031871402367 15.165894960970238
    vertex 41.38929298854368 61.31160471402371 16.13104948185327
    vertex 41.38929298854368 73.70031871402367 16.13104948185453
  endloop
endfacet
facet normal -0.4202706308862825 4.744463120034703e-14 -0.9073988080301
  outer loop
    vertex 41.38929298854368 61.31160471402371 16.13104948185327
    vertex 43.47314086525069 73.70031871402367 15.165894960970238
    vertex 43.47314086525069 61.29984371402367 15.16589496097024
  endloop
endfacet
facet normal -1.0 -4.142209374122038e-14 -2.2893079212477566e-14
  outer loop
    vertex 36.38929298854367 70.985164475315 24.999999999999943
    vertex 36.38929298854367 73.70031871402321 20.56552474092721
    vertex 36.38929298854388 70.98516447531499 20.565524740927202
  endloop
endfacet
facet normal -1.0 -4.142209374122038e-14 -2.2893079212477566e-14
  outer loop
    vertex 36.38929298854367 73.70031871402321 20.56552474092721
    vertex 36.38929298854367 70.985164475315 24.999999999999943
    vertex 36.38929298854368 73.70031871402321 24.999999999999943
  endloop
endfacet
facet normal 1.4698844890515298e-15 1.0 -2.981692754480444e-14
  outer loop
    vertex 65.78920648645669 63.98516447531545 15.223312395445632
    vertex 158.0810370147756 63.98516447531545 15.0
    vertex 68.01767513127062 63.98516447531545 15.0
  endloop
endfacet
facet normal 1.4698844890515298e-15 1.0 -2.981692754480444e-14
  outer loop
    vertex 158.0810370147756 63.98516447531545 15.0
    vertex 65.78920648645669 63.98516447531545 15.223312395445632
    vertex 158.0810370147756 63.98516447531545 25.0
  endloop
endfacet
facet normal 1.4698844890515298e-15 1.0 -2.981692754480444e-14
  outer loop
    vertex 158.0810370147756 63.98516447531545 25.0
    vertex 65.78920648645669 63.98516447531545 15.223312395445632
    vertex 63.56216775301204 63.98516447531545 15.460460886091795
  endloop
endfacet
facet normal 1.4698844890515298e-15 1.0 -2.981692754480444e-14
  outer loop
    vertex 158.0810370147756 63.98516447531545 25.0
    vertex 63.56216775301204 63.98516447531545 15.460460886091795
    vertex 61.33664483551737 63.98516447531545 15.711436324301484
  endloop
endfacet
facet normal 1.4698844890515298e-15 1.0 -2.981692754480444e-14
  outer loop
    vertex 158.0810370147756 63.98516447531545 25.0
    vertex 61.33664483551737 63.98516447531545 15.711436324301484
    vertex 59.11272358008317 63.98516447531545 15.976229029084823
  endloop
endfacet
facet normal 1.4698844890515298e-15 1.0 -2.981692754480444e-14
  outer loop
    vertex 158.0810370147756 63.98516447531545 25.0
    vertex 59.11272358008317 63.98516447531545 15.976229029084823
    vertex 56.89048977103824 63.98516447531545 16.25482878647187
  endloop
endfacet
facet normal 1.4698844890515298e-15 1.0 -2.981692754480444e-14
  outer loop
    vertex 158.0810370147756 63.98516447531545 25.0
    vertex 56.89048977103824 63.98516447531545 16.25482878647187
    vertex 54.67002912762076 63.98516447531545 16.54722484990731
  endloop
endfacet
facet normal 1.4698844890515298e-15 1.0 -2.981692754480444e-14
  outer loop
    vertex 158.0810370147756 63.98516447531545 25.0
    vertex 54.67002912762076 63.98516447531545 16.54722484990731
    vertex 52.45142730067178 63.98516447531545 16.853405940664295
  endloop
endfacet
facet normal 1.4698844890515298e-15 1.0 -2.981692754480444e-14
  outer loop
    vertex 158.0810370147756 63.98516447531545 25.0
    vertex 52.45142730067178 63.98516447531545 16.853405940664295
    vertex 50.23476986933137 63.98516447531545 17.173360248279995
  endloop
endfacet
facet normal 1.4698844890515298e-15 1.0 -2.981692754480444e-14
  outer loop
    vertex 158.0810370147756 63.98516447531545 25.0
    vertex 50.23476986933137 63.98516447531545 17.173360248279995
    vertex 48.02014233773756 63.98516447531545 17.507075431011103
  endloop
endfacet
facet normal 1.4698844890515298e-15 1.0 -2.981692754480444e-14
  outer loop
    vertex 158.0810370147756 63.98516447531545 25.0
    vertex 48.02014233773756 63.98516447531545 17.507075431011103
    vertex 45.807630131728125 63.98516447531545 17.854538616309537
  endloop
endfacet
facet normal 1.4698844890515298e-15 1.0 -2.981692754480444e-14
  outer loop
    vertex 158.0810370147756 63.98516447531545 25.0
    vertex 45.807630131728125 63.98516447531545 17.854538616309537
    vertex 43.59731859554541 63.98516447531545 18.21573640131949
  endloop
endfacet
facet normal 1.4698844890515298e-15 1.0 -2.981692754480444e-14
  outer loop
    vertex 158.0810370147756 63.98516447531545 25.0
    vertex 43.59731859554541 63.98516447531545 18.21573640131949
    vertex 41.38929298854433 63.98516447531545 18.590654853394025
  endloop
endfacet
facet normal 1.4698844890515298e-15 1.0 -2.981692754480444e-14
  outer loop
    vertex 158.0810370147756 63.98516447531545 25.0
    vertex 41.38929298854433 63.98516447531545 18.590654853394025
    vertex 36.389292988543914 63.985164475316 20.565524740927238
  endloop
endfacet
facet normal 1.4698844890515298e-15 1.0 -2.981692754480444e-14
  outer loop
    vertex 158.0810370147756 63.98516447531545 25.0
    vertex 36.389292988543914 63.985164475316 20.565524740927238
    vertex 36.38929298854367 63.985164475315834 24.999999999999943
  endloop
endfacet
facet normal 1.4153712846793414e-15 -1.0 -3.0568426162026447e-14
  outer loop
    vertex 158.0810370147756 70.98516447531544 25.0
    vertex 68.01767513127062 70.98516447531544 15.0
    vertex 158.0810370147756 70.98516447531544 15.0
  endloop
endfacet
facet normal 1.4153712846793414e-15 -1.0 -3.0568426162026447e-14
  outer loop
    vertex 68.01767513127062 70.98516447531544 15.0
    vertex 158.0810370147756 70.98516447531544 25.0
    vertex 65.78920648645669 70.98516447531544 15.223312395445632
  endloop
endfacet
facet normal 1.4153712846793414e-15 -1.0 -3.0568426162026447e-14
  outer loop
    vertex 65.78920648645669 70.98516447531544 15.223312395445632
    vertex 158.0810370147756 70.98516447531544 25.0
    vertex 63.56216775301204 70.98516447531544 15.460460886091795
  endloop
endfacet
facet normal 1.4153712846793414e-15 -1.0 -3.0568426162026447e-14
  outer loop
    vertex 63.56216775301204 70.98516447531544 15.460460886091795
    vertex 158.0810370147756 70.98516447531544 25.0
    vertex 61.33664483551737 70.98516447531544 15.711436324301484
  endloop
endfacet
facet normal 1.4153712846793414e-15 -1.0 -3.0568426162026447e-14
  outer loop
    vertex 61.33664483551737 70.98516447531544 15.711436324301484
    vertex 158.0810370147756 70.98516447531544 25.0
    vertex 59.11272358008317 70.98516447531544 15.976229029084823
  endloop
endfacet
facet normal 1.4153712846793414e-15 -1.0 -3.0568426162026447e-14
  outer loop
    vertex 59.11272358008317 70.98516447531544 15.976229029084823
    vertex 158.0810370147756 70.98516447531544 25.0
    vertex 56.89048977103824 70.98516447531544 16.25482878647187
  endloop
endfacet
facet normal 1.4153712846793414e-15 -1.0 -3.0568426162026447e-14
  outer loop
    vertex 56.89048977103824 70.98516447531544 16.25482878647187
    vertex 158.0810370147756 70.98516447531544 25.0
    vertex 54.67002912762076 70.98516447531544 16.54722484990731
  endloop
endfacet
facet normal 1.4153712846793414e-15 -1.0 -3.0568426162026447e-14
  outer loop
    vertex 54.67002912762076 70.98516447531544 16.54722484990731
    vertex 158.0810370147756 70.98516447531544 25.0
    vertex 52.45142730067178 70.98516447531544 16.853405940664295
  endloop
endfacet
facet normal 1.4153712846793414e-15 -1.0 -3.0568426162026447e-14
  outer loop
    vertex 52.45142730067178 70.98516447531544 16.853405940664295
    vertex 158.0810370147756 70.98516447531544 25.0
    vertex 50.23476986933137 70.98516447531544 17.173360248279995
  endloop
endfacet
facet normal 1.4153712846793414e-15 -1.0 -3.0568426162026447e-14
  outer loop
    vertex 50.23476986933137 70.98516447531544 17.173360248279995
    vertex 158.0810370147756 70.98516447531544 25.0
    vertex 48.02014233773756 70.98516447531544 17.507075431011103
  endloop
endfacet
facet normal 1.4153712846793414e-15 -1.0 -3.0568426162026447e-14
  outer loop
    vertex 48.02014233773756 70.98516447531544 17.507075431011103
    vertex 158.0810370147756 70.98516447531544 25.0
    vertex 45.807630131728125 70.98516447531544 17.854538616309537
  endloop
endfacet
facet normal 1.4153712846793414e-15 -1.0 -3.0568426162026447e-14
  outer loop
    vertex 45.807630131728125 70.98516447531544 17.854538616309537
    vertex 158.0810370147756 70.98516447531544 25.0
    vertex 43.59731859554541 70.98516447531544 18.21573640131949
  endloop
endfacet
facet normal 1.4153712846793414e-15 -1.0 -3.0568426162026447e-14
  outer loop
    vertex 43.59731859554541 70.98516447531544 18.21573640131949
    vertex 158.0810370147756 70.98516447531544 25.0
    vertex 41.38929298854433 70.98516447531544 18.590654853394025
  endloop
endfacet
facet normal 1.4153712846793414e-15 -1.0 -3.0568426162026447e-14
  outer loop
    vertex 41.38929298854433 70.98516447531544 18.590654853394025
    vertex 158.0810370147756 70.98516447531544 25.0
    vertex 36.38929298854388 70.98516447531499 20.565524740927202
  endloop
endfacet
facet normal 1.4153712846793414e-15 -1.0 -3.0568426162026447e-14
  outer loop
    vertex 36.38929298854388 70.98516447531499 20.565524740927202
    vertex 158.0810370147756 70.98516447531544 25.0
    vertex 36.38929298854367 70.985164475315 24.999999999999943
  endloop
endfacet
facet normal 0.3673573485944809 3.2872062485354315e-15 0.9300798774479712
  outer loop
    vertex 36.389292988543914 63.985164475316 20.565524740927238
    vertex 41.38929298854433 70.98516447531544 18.590654853394025
    vertex 36.38929298854388 70.98516447531499 20.565524740927202
  endloop
endfacet
facet normal 0.3673573485944809 3.2872062485354315e-15 0.9300798774479712
  outer loop
    vertex 41.38929298854433 70.98516447531544 18.590654853394025
    vertex 36.389292988543914 63.985164475316 20.565524740927238
    vertex 41.38929298854433 63.98516447531545 18.590654853394025
  endloop
endfacet
facet normal 3.903647115960113e-05 0.9999999767596718 0.00021203020998589249
  outer loop
    vertex 67.25437755226893 73.70349771402353 7.9384907047107145
    vertex 68.6778844324917 73.70349771402353 7.915995713777849
    vertex 67.96505939645141 73.70349771402353 7.859431482529171
  endloop
endfacet
facet normal 3.903647115960113e-05 0.9999999767596718 0.00021203020998589249
  outer loop
    vertex 68.6778844324917 73.70349771402353 7.915995713777849
    vertex 67.25437755226893 73.70349771402353 7.9384907047107145
    vertex 69.36720374457781 73.70349771402356 8.106148100688136
  endloop
endfacet
facet normal 3.903647115960113e-05 0.9999999767596718 0.00021203020998589249
  outer loop
    vertex 69.36720374457781 73.70349771402356 8.106148100688136
    vertex 67.25437755226893 73.70349771402353 7.9384907047107145
    vertex 66.57141069929034 73.70349771402356 8.150328666358511
  endloop
endfacet
facet normal 3.903647115960113e-05 0.9999999767596718 0.00021203020998589249
  outer loop
    vertex 69.36720374457781 73.70349771402356 8.106148100688136
    vertex 66.57141069929034 73.70349771402356 8.150328666358511
    vertex 70.00821420135311 73.70349771402357 8.423046567972678
  endloop
endfacet
facet normal 3.903647115960113e-05 0.9999999767596718 0.00021203020998589249
  outer loop
    vertex 70.00821420135311 73.70349771402357 8.423046567972678
    vertex 66.57141069929034 73.70349771402356 8.150328666358511
    vertex 65.94073339428444 73.70349771402357 8.487323000454902
  endloop
endfacet
facet normal 3.903647115960113e-05 0.9999999767596718 0.00021203020998589249
  outer loop
    vertex 70.00821420135311 73.70349771402357 8.423046567972678
    vertex 65.94073339428444 73.70349771402357 8.487323000454902
    vertex 70.57785092376714 73.7034977140236 8.8552884548138
  endloop
endfacet
facet normal 3.903647115960113e-05 0.9999999767596718 0.00021203020998589249
  outer loop
    vertex 70.57785092376714 73.7034977140236 8.8552884548138
    vertex 65.94073339428444 73.70349771402357 8.487323000454902
    vertex 65.38503870817709 73.7034977140236 8.93734795542366
  endloop
endfacet
facet normal 3.903647115960113e-05 0.9999999767596718 0.00021203020998589249
  outer loop
    vertex 70.57785092376714 73.7034977140236 8.8552884548138
    vertex 65.38503870817709 73.7034977140236 8.93734795542366
    vertex 71.05561720702156 73.70349771402364 9.387320806130738
  endloop
endfacet
facet normal 3.903647115960113e-05 0.9999999767596718 0.00021203020998589249
  outer loop
    vertex 71.05561720702156 73.70349771402364 9.387320806130738
    vertex 65.38503870817709 73.7034977140236 8.93734795542366
    vertex 64.92432168252896 73.70349771402364 9.484210704694913
  endloop
endfacet
facet normal 3.903647115960113e-05 0.9999999767596718 0.00021203020998589249
  outer loop
    vertex 71.05561720702156 73.70349771402364 9.387320806130738
    vertex 64.92432168252896 73.70349771402364 9.484210704694913
    vertex 71.42432203430663 73.70349771402367 9.999999999999163
  endloop
endfacet
facet normal 3.903647115960113e-05 0.9999999767596718 0.00021203020998589249
  outer loop
    vertex 71.42432203430663 73.70349771402367 9.999999999999163
    vertex 64.92432168252896 73.70349771402364 9.484210704694913
    vertex 64.57515986667757 73.70349771402368 10.108233998021316
  endloop
endfacet
facet normal 3.903647115960113e-05 0.9999999767596718 0.00021203020998589249
  outer loop
    vertex 71.42432203430663 73.70349771402367 9.999999999999163
    vertex 64.57515986667757 73.70349771402368 10.108233998021316
    vertex 152.8561870951029 73.69707271402368 9.999999999999996
  endloop
endfacet
facet normal 3.903647115960113e-05 0.9999999767596718 0.00021203020998589249
  outer loop
    vertex 38.54742758916191 73.70031871402371 15.807516823719402
    vertex 40.00279240307079 73.70031871402372 15.666836300627718
    vertex 39.26770692217018 73.70031871402372 15.660590457009487
  endloop
endfacet
facet normal 3.903647115960113e-05 0.9999999767596718 0.00021203020998589249
  outer loop
    vertex 40.00279240307079 73.70031871402372 15.666836300627718
    vertex 38.54742758916191 73.70031871402371 15.807516823719402
    vertex 40.72047112720548 73.70031871402371 15.825980649310955
  endloop
endfacet
facet normal 3.903647115960113e-05 0.9999999767596718 0.00021203020998589249
  outer loop
    vertex 40.72047112720548 73.70031871402371 15.825980649310955
    vertex 38.54742758916191 73.70031871402371 15.807516823719402
    vertex 37.87351847391869 73.70031871402368 16.10117679577126
  endloop
endfacet
facet normal 3.903647115960113e-05 0.9999999767596718 0.00021203020998589249
  outer loop
    vertex 40.72047112720548 73.70031871402371 15.825980649310955
    vertex 37.87351847391869 73.70031871402368 16.10117679577126
    vertex 41.38929298854368 73.70031871402367 16.13104948185453
  endloop
endfacet
facet normal 3.903647115960113e-05 0.9999999767596718 0.00021203020998589249
  outer loop
    vertex 41.38929298854368 73.70031871402367 16.13104948185453
    vertex 37.87351847391869 73.70031871402368 16.10117679577126
    vertex 37.2755116113422 73.70031871402364 16.528701610378345
  endloop
endfacet
facet normal 3.903647115960113e-05 0.9999999767596718 0.00021203020998589249
  outer loop
    vertex 155.2351281516914 73.69707271402368 7.931882758419822
    vertex 157.37576289056784 73.69707271402368 8.061192082440073
    vertex 156.31556062685863 73.69707271402368 7.829088190646698
  endloop
endfacet
facet normal 3.903647115960113e-05 0.9999999767596718 0.00021203020998589249
  outer loop
    vertex 157.37576289056784 73.69707271402368 8.061192082440073
    vertex 155.2351281516914 73.69707271402368 7.931882758419822
    vertex 154.23771710940045 73.69707271402368 8.359752211963615
  endloop
endfacet
facet normal 3.903647115960113e-05 0.9999999767596718 0.00021203020998589249
  outer loop
    vertex 157.37576289056784 73.69707271402368 8.061192082440073
    vertex 154.23771710940045 73.69707271402368 8.359752211963615
    vertex 158.31441660079292 73.69707271402368 8.606013400709127
  endloop
endfacet
facet normal 3.903647115960113e-05 0.9999999767596718 0.00021203020998589249
  outer loop
    vertex 158.31441660079292 73.69707271402368 8.606013400709127
    vertex 154.23771710940045 73.69707271402368 8.359752211963615
    vertex 153.41864519226266 73.69707271402368 9.071807161469586
  endloop
endfacet
facet normal 3.903647115960113e-05 0.9999999767596718 0.00021203020998589249
  outer loop
    vertex 158.31441660079292 73.69707271402368 8.606013400709127
    vertex 153.41864519226266 73.69707271402368 9.071807161469586
    vertex 159.04181921594162 73.69707271402368 9.411486238261453
  endloop
endfacet
facet normal 3.903647115960113e-05 0.9999999767596718 0.00021203020998589249
  outer loop
    vertex 159.04181921594162 73.69707271402368 9.411486238261453
    vertex 153.41864519226266 73.69707271402368 9.071807161469586
    vertex 152.8561870951029 73.69707271402368 9.999999999999996
  endloop
endfacet
facet normal 3.903647115960113e-05 0.9999999767596718 0.00021203020998589249
  outer loop
    vertex 159.04181921594162 73.69707271402368 9.411486238261453
    vertex 152.8561870951029 73.69707271402368 9.999999999999996
    vertex 159.48845642777763 73.69707271402368 10.400635497758262
  endloop
endfacet
facet normal 3.903647115960113e-05 0.9999999767596718 0.00021203020998589249
  outer loop
    vertex 159.48845642777763 73.69707271402368 10.400635497758262
    vertex 152.8561870951029 73.69707271402368 9.999999999999996
    vertex 64.57515986667757 73.70349771402368 10.108233998021316
  endloop
endfacet
facet normal 3.903647115960113e-05 0.9999999767596718 0.00021203020998589249
  outer loop
    vertex 159.48845642777763 73.69707271402368 10.400635497758262
    vertex 64.57515986667757 73.70349771402368 10.108233998021316
    vertex 63.42874342831938 73.70031871402365 10.173162077248602
  endloop
endfacet
facet normal 3.903647115960113e-05 0.9999999767596718 0.00021203020998589249
  outer loop
    vertex 159.48845642777763 73.69707271402368 10.400635497758262
    vertex 63.42874342831938 73.70031871402365 10.173162077248602
    vertex 61.14243780518379 73.70031871402365 10.389383769172085
  endloop
endfacet
facet normal 3.903647115960113e-05 0.9999999767596718 0.00021203020998589249
  outer loop
    vertex 159.48845642777763 73.69707271402368 10.400635497758262
    vertex 61.14243780518379 73.70031871402365 10.389383769172085
    vertex 58.86591145538682 73.70031871402365 10.691663442851677
  endloop
endfacet
facet normal 3.903647115960113e-05 0.9999999767596718 0.00021203020998589249
  outer loop
    vertex 159.48845642777763 73.69707271402368 10.400635497758262
    vertex 58.86591145538682 73.70031871402365 10.691663442851677
    vertex 159.61164530367634 73.69707271402368 11.47893302507368
  endloop
endfacet
facet normal 3.903647115960113e-05 0.9999999767596718 0.00021203020998589249
  outer loop
    vertex 159.61164530367634 73.69707271402368 11.47893302507368
    vertex 58.86591145538682 73.70031871402365 10.691663442851677
    vertex 56.60240248873932 73.70031871402365 11.079571138503677
  endloop
endfacet
facet normal 3.903647115960113e-05 0.9999999767596718 0.00021203020998589249
  outer loop
    vertex 159.61164530367634 73.69707271402368 11.47893302507368
    vertex 56.60240248873932 73.70031871402365 11.079571138503677
    vertex 54.35513049924792 73.70031871402365 11.55255509984596
  endloop
endfacet
facet normal 3.903647115960113e-05 0.9999999767596718 0.00021203020998589249
  outer loop
    vertex 159.61164530367634 73.69707271402368 11.47893302507368
    vertex 54.35513049924792 73.70031871402365 11.55255509984596
    vertex 159.39961328561816 73.69707271402368 12.543331202391686
  endloop
endfacet
facet normal 3.903647115960113e-05 0.9999999767596718 0.00021203020998589249
  outer loop
    vertex 159.39961328561816 73.69707271402368 12.543331202391686
    vertex 54.35513049924792 73.70031871402365 11.55255509984596
    vertex 52.12729198559464 73.70031871402365 12.109942558910875
  endloop
endfacet
facet normal 3.903647115960113e-05 0.9999999767596718 0.00021203020998589249
  outer loop
    vertex 159.39961328561816 73.69707271402368 12.543331202391686
    vertex 52.12729198559464 73.70031871402365 12.109942558910875
    vertex 49.922055804467064 73.70031871402365 12.750940692984216
  endloop
endfacet
facet normal 3.903647115960113e-05 0.9999999767596718 0.00021203020998589249
  outer loop
    vertex 159.39961328561816 73.69707271402368 12.543331202391686
    vertex 49.922055804467064 73.70031871402365 12.750940692984216
    vertex 158.87262323594672 73.69707271402368 13.492110704756204
  endloop
endfacet
facet normal 3.903647115960113e-05 0.9999999767596718 0.00021203020998589249
  outer loop
    vertex 158.87262323594672 73.69707271402368 13.492110704756204
    vertex 49.922055804467064 73.70031871402365 12.750940692984216
    vertex 47.742558663206125 73.70031871402367 13.47463775230883
  endloop
endfacet
facet normal 3.903647115960113e-05 0.9999999767596718 0.00021203020998589249
  outer loop
    vertex 158.87262323594672 73.69707271402368 13.492110704756204
    vertex 47.742558663206125 73.70031871402367 13.47463775230883
    vertex 45.59190065818294 73.70031871402367 14.280004356948838
  endloop
endfacet
facet normal 3.903647115960113e-05 0.9999999767596718 0.00021203020998589249
  outer loop
    vertex 158.87262323594672 73.69707271402368 13.492110704756204
    vertex 45.59190065818294 73.70031871402367 14.280004356948838
    vertex 158.0810370147756 73.69707271402368 14.234601318172823
  endloop
endfacet
facet normal 3.903647115960113e-05 0.9999999767596718 0.00021203020998589249
  outer loop
    vertex 158.0810370147756 73.69707271402368 14.234601318172823
    vertex 45.59190065818294 73.70031871402367 14.280004356948838
    vertex 158.0810370147756 73.70031871402365 25.0
  endloop
endfacet
facet normal 3.903647115960113e-05 0.9999999767596718 0.00021203020998589249
  outer loop
    vertex 158.0810370147756 73.70031871402365 25.0
    vertex 45.59190065818294 73.70031871402367 14.280004356948838
    vertex 43.47314086525069 73.70031871402367 15.165894960970238
  endloop
endfacet
facet normal 3.903647115960113e-05 0.9999999767596718 0.00021203020998589249
  outer loop
    vertex 158.0810370147756 73.70031871402365 25.0
    vertex 43.47314086525069 73.70031871402367 15.165894960970238
    vertex 41.38929298854368 73.70031871402367 16.13104948185453
  endloop
endfacet
facet normal 3.903647115960113e-05 0.9999999767596718 0.00021203020998589249
  outer loop
    vertex 158.0810370147756 73.70031871402365 25.0
    vertex 41.38929298854368 73.70031871402367 16.13104948185453
    vertex 37.2755116113422 73.70031871402364 16.528701610378345
  endloop
endfacet
facet normal 3.903647115960113e-05 0.9999999767596718 0.00021203020998589249
  outer loop
    vertex 158.0810370147756 73.70031871402365 25.0
    vertex 37.2755116113422 73.70031871402364 16.528701610378345
    vertex 36.779612848983106 73.70031871402358 17.071356281678717
  endloop
endfacet
facet normal 3.903647115960113e-05 0.9999999767596718 0.00021203020998589249
  outer loop
    vertex 158.0810370147756 73.70031871402365 25.0
    vertex 36.779612848983106 73.70031871402358 17.071356281678717
    vertex 36.40755345479199 73.70031871402351 17.705360604998
  endloop
endfacet
facet normal 3.903647115960113e-05 0.9999999767596718 0.00021203020998589249
  outer loop
    vertex 158.0810370147756 73.70031871402365 25.0
    vertex 36.40755345479199 73.70031871402351 17.705360604998
    vertex 36.17563780982889 73.70031871402344 18.40293125261353
  endloop
endfacet
facet normal 3.903647115960113e-05 0.9999999767596718 0.00021203020998589249
  outer loop
    vertex 158.0810370147756 73.70031871402365 25.0
    vertex 36.17563780982889 73.70031871402344 18.40293125261353
    vertex 36.09402891792679 73.70031871402337 19.133499294315268
  endloop
endfacet
facet normal 3.903647115960113e-05 0.9999999767596718 0.00021203020998589249
  outer loop
    vertex 158.0810370147756 73.70031871402365 25.0
    vertex 36.09402891792679 73.70031871402337 19.133499294315268
    vertex 36.16630304269369 73.70031871402328 19.865049788596135
  endloop
endfacet
facet normal 3.903647115960113e-05 0.9999999767596718 0.00021203020998589249
  outer loop
    vertex 158.0810370147756 73.70031871402365 25.0
    vertex 36.16630304269369 73.70031871402328 19.865049788596135
    vertex 36.38929298854367 73.70031871402321 20.56552474092721
  endloop
endfacet
facet normal 3.903647115960113e-05 0.9999999767596718 0.00021203020998589249
  outer loop
    vertex 158.0810370147756 73.70031871402365 25.0
    vertex 36.38929298854367 73.70031871402321 20.56552474092721
    vertex 36.38929298854368 73.70031871402321 24.999999999999943
  endloop
endfacet
facet normal -3.679830148463307e-05 -0.9999998343280992 0.0005744472638659048
  outer loop
    vertex 157.37576289056784 61.299843714023666 8.061192082440073
    vertex 155.2351281516914 61.299843714023666 7.931882758419822
    vertex 156.31556062685863 61.299843714023666 7.829088190646698
  endloop
endfacet
facet normal -3.679830148463307e-05 -0.9999998343280992 0.0005744472638659048
  outer loop
    vertex 155.2351281516914 61.299843714023666 7.931882758419822
    vertex 157.37576289056784 61.299843714023666 8.061192082440073
    vertex 154.23771710940045 61.299843714023666 8.359752211963615
  endloop
endfacet
facet normal -3.679830148463307e-05 -0.9999998343280992 0.0005744472638659048
  outer loop
    vertex 154.23771710940045 61.299843714023666 8.359752211963615
    vertex 157.37576289056784 61.299843714023666 8.061192082440073
    vertex 158.31441660079292 61.299843714023666 8.606013400709127
  endloop
endfacet
facet normal -3.679830148463307e-05 -0.9999998343280992 0.0005744472638659048
  outer loop
    vertex 154.23771710940045 61.299843714023666 8.359752211963615
    vertex 158.31441660079292 61.299843714023666 8.606013400709127
    vertex 153.41864519226266 61.299843714023666 9.071807161469586
  endloop
endfacet
facet normal -3.679830148463307e-05 -0.9999998343280992 0.0005744472638659048
  outer loop
    vertex 153.41864519226266 61.299843714023666 9.071807161469586
    vertex 158.31441660079292 61.299843714023666 8.606013400709127
    vertex 159.04181921594162 61.299843714023666 9.411486238261453
  endloop
endfacet
facet normal -3.679830148463307e-05 -0.9999998343280992 0.0005744472638659048
  outer loop
    vertex 153.41864519226266 61.299843714023666 9.071807161469586
    vertex 159.04181921594162 61.299843714023666 9.411486238261453
    vertex 152.8561870951029 61.299843714023666 9.999999999999996
  endloop
endfacet
facet normal -3.679830148463307e-05 -0.9999998343280992 0.0005744472638659048
  outer loop
    vertex 152.8561870951029 61.299843714023666 9.999999999999996
    vertex 159.04181921594162 61.299843714023666 9.411486238261453
    vertex 159.48845642777763 61.299843714023666 10.400635497758262
  endloop
endfacet
facet normal -3.679830148463307e-05 -0.9999998343280992 0.0005744472638659048
  outer loop
    vertex 152.8561870951029 61.299843714023666 9.999999999999996
    vertex 159.48845642777763 61.299843714023666 10.400635497758262
    vertex 71.42432203430663 61.29984371402365 10.000000000000004
  endloop
endfacet
facet normal -3.679830148463307e-05 -0.9999998343280992 0.0005744472638659048
  outer loop
    vertex 71.42432203430663 61.29984371402365 10.000000000000004
    vertex 159.48845642777763 61.299843714023666 10.400635497758262
    vertex 64.57515986667757 61.299843714023666 10.108233998022156
  endloop
endfacet
facet normal -3.679830148463307e-05 -0.9999998343280992 0.0005744472638659048
  outer loop
    vertex 64.57515986667757 61.299843714023666 10.108233998022156
    vertex 159.48845642777763 61.299843714023666 10.400635497758262
    vertex 63.42874342831938 61.299843714023666 10.173162077248595
  endloop
endfacet
facet normal -3.679830148463307e-05 -0.9999998343280992 0.0005744472638659048
  outer loop
    vertex 63.42874342831938 61.299843714023666 10.173162077248595
    vertex 159.48845642777763 61.299843714023666 10.400635497758262
    vertex 61.14243780518379 61.299843714023666 10.38938376917208
  endloop
endfacet
facet normal -3.679830148463307e-05 -0.9999998343280992 0.0005744472638659048
  outer loop
    vertex 61.14243780518379 61.299843714023666 10.38938376917208
    vertex 159.48845642777763 61.299843714023666 10.400635497758262
    vertex 58.86591145538682 61.299843714023666 10.691663442851672
  endloop
endfacet
facet normal -3.679830148463307e-05 -0.9999998343280992 0.0005744472638659048
  outer loop
    vertex 58.86591145538682 61.299843714023666 10.691663442851672
    vertex 159.48845642777763 61.299843714023666 10.400635497758262
    vertex 159.61164530367634 61.299843714023666 11.47893302507368
  endloop
endfacet
facet normal -3.679830148463307e-05 -0.9999998343280992 0.0005744472638659048
  outer loop
    vertex 58.86591145538682 61.299843714023666 10.691663442851672
    vertex 159.61164530367634 61.299843714023666 11.47893302507368
    vertex 56.60240248873932 61.299843714023666 11.079571138503672
  endloop
endfacet
facet normal -3.679830148463307e-05 -0.9999998343280992 0.0005744472638659048
  outer loop
    vertex 56.60240248873932 61.299843714023666 11.079571138503672
    vertex 159.61164530367634 61.299843714023666 11.47893302507368
    vertex 54.35513049924792 61.299843714023666 11.552555099845955
  endloop
endfacet
facet normal -3.679830148463307e-05 -0.9999998343280992 0.0005744472638659048
  outer loop
    vertex 54.35513049924792 61.299843714023666 11.552555099845955
    vertex 159.61164530367634 61.299843714023666 11.47893302507368
    vertex 159.39961328561816 61.299843714023666 12.543331202391686
  endloop
endfacet
facet normal -3.679830148463307e-05 -0.9999998343280992 0.0005744472638659048
  outer loop
    vertex 54.35513049924792 61.299843714023666 11.552555099845955
    vertex 159.39961328561816 61.299843714023666 12.543331202391686
    vertex 52.12729198559464 61.299843714023666 12.109942558910868
  endloop
endfacet
facet normal -3.679830148463307e-05 -0.9999998343280992 0.0005744472638659048
  outer loop
    vertex 52.12729198559464 61.299843714023666 12.109942558910868
    vertex 159.39961328561816 61.299843714023666 12.543331202391686
    vertex 49.922055804467064 61.299843714023666 12.75094069298422
  endloop
endfacet
facet normal -3.679830148463307e-05 -0.9999998343280992 0.0005744472638659048
  outer loop
    vertex 49.922055804467064 61.299843714023666 12.75094069298422
    vertex 159.39961328561816 61.299843714023666 12.543331202391686
    vertex 158.87262323594672 61.299843714023666 13.492110704756204
  endloop
endfacet
facet normal -3.679830148463307e-05 -0.9999998343280992 0.0005744472638659048
  outer loop
    vertex 49.922055804467064 61.299843714023666 12.75094069298422
    vertex 158.87262323594672 61.299843714023666 13.492110704756204
    vertex 47.742558663206125 61.29984371402367 13.474637752308832
  endloop
endfacet
facet normal -3.679830148463307e-05 -0.9999998343280992 0.0005744472638659048
  outer loop
    vertex 47.742558663206125 61.29984371402367 13.474637752308832
    vertex 158.87262323594672 61.299843714023666 13.492110704756204
    vertex 45.59190065818294 61.29984371402367 14.280004356948842
  endloop
endfacet
facet normal -3.679830148463307e-05 -0.9999998343280992 0.0005744472638659048
  outer loop
    vertex 45.59190065818294 61.29984371402367 14.280004356948842
    vertex 158.87262323594672 61.299843714023666 13.492110704756204
    vertex 158.0810370147756 61.299843714023666 14.234601318172823
  endloop
endfacet
facet normal -3.679830148463307e-05 -0.9999998343280992 0.0005744472638659048
  outer loop
    vertex 45.59190065818294 61.29984371402367 14.280004356948842
    vertex 158.0810370147756 61.299843714023666 14.234601318172823
    vertex 158.0810370147756 61.299843714023666 25.0
  endloop
endfacet
facet normal -3.679830148463307e-05 -0.9999998343280992 0.0005744472638659048
  outer loop
    vertex 45.59190065818294 61.29984371402367 14.280004356948842
    vertex 158.0810370147756 61.299843714023666 25.0
    vertex 43.47314086525069 61.29984371402367 15.16589496097024
  endloop
endfacet
facet normal -3.679830148463307e-05 -0.9999998343280992 0.0005744472638659048
  outer loop
    vertex 43.47314086525069 61.29984371402367 15.16589496097024
    vertex 158.0810370147756 61.299843714023666 25.0
    vertex 41.38929298854368 61.31160471402371 16.13104948185327
  endloop
endfacet
facet normal -3.679830148463307e-05 -0.9999998343280992 0.0005744472638659048
  outer loop
    vertex 41.38929298854368 61.31160471402371 16.13104948185327
    vertex 158.0810370147756 61.299843714023666 25.0
    vertex 37.2755116113422 61.311604714023666 16.528701610377087
  endloop
endfacet
facet normal -3.679830148463307e-05 -0.9999998343280992 0.0005744472638659048
  outer loop
    vertex 37.2755116113422 61.311604714023666 16.528701610377087
    vertex 158.0810370147756 61.299843714023666 25.0
    vertex 36.779612848983106 61.311604714023616 17.07135628167746
  endloop
endfacet
facet normal -3.679830148463307e-05 -0.9999998343280992 0.0005744472638659048
  outer loop
    vertex 36.779612848983106 61.311604714023616 17.07135628167746
    vertex 158.0810370147756 61.299843714023666 25.0
    vertex 36.40755345479199 61.31160471402355 17.70536060499674
  endloop
endfacet
facet normal -3.679830148463307e-05 -0.9999998343280992 0.0005744472638659048
  outer loop
    vertex 36.40755345479199 61.31160471402355 17.70536060499674
    vertex 158.0810370147756 61.299843714023666 25.0
    vertex 36.17563780982889 61.31160471402348 18.402931252612273
  endloop
endfacet
facet normal -3.679830148463307e-05 -0.9999998343280992 0.0005744472638659048
  outer loop
    vertex 36.17563780982889 61.31160471402348 18.402931252612273
    vertex 158.0810370147756 61.299843714023666 25.0
    vertex 36.09402891792679 61.311604714023396 19.13349929431401
  endloop
endfacet
facet normal -3.679830148463307e-05 -0.9999998343280992 0.0005744472638659048
  outer loop
    vertex 36.09402891792679 61.311604714023396 19.13349929431401
    vertex 158.0810370147756 61.299843714023666 25.0
    vertex 36.16630304269369 61.311604714023325 19.865049788594877
  endloop
endfacet
facet normal -3.679830148463307e-05 -0.9999998343280992 0.0005744472638659048
  outer loop
    vertex 36.16630304269369 61.311604714023325 19.865049788594877
    vertex 158.0810370147756 61.299843714023666 25.0
    vertex 36.38929298854367 61.31160471402326 20.56552474092595
  endloop
endfacet
facet normal -3.679830148463307e-05 -0.9999998343280992 0.0005744472638659048
  outer loop
    vertex 36.38929298854367 61.31160471402326 20.56552474092595
    vertex 158.0810370147756 61.299843714023666 25.0
    vertex 36.38929298854367 61.29984371402406 24.999999999999943
  endloop
endfacet
facet normal -3.679830148463307e-05 -0.9999998343280992 0.0005744472638659048
  outer loop
    vertex 40.00279240307079 61.31160471402375 15.66683630062646
    vertex 38.54742758916191 61.31160471402373 15.807516823718144
    vertex 39.26770692217018 61.31160471402375 15.66059045700823
  endloop
endfacet
facet normal -3.679830148463307e-05 -0.9999998343280992 0.0005744472638659048
  outer loop
    vertex 38.54742758916191 61.31160471402373 15.807516823718144
    vertex 40.00279240307079 61.31160471402375 15.66683630062646
    vertex 40.72047112720548 61.31160471402373 15.825980649309697
  endloop
endfacet
facet normal -3.679830148463307e-05 -0.9999998343280992 0.0005744472638659048
  outer loop
    vertex 38.54742758916191 61.31160471402373 15.807516823718144
    vertex 40.72047112720548 61.31160471402373 15.825980649309697
    vertex 37.87351847391869 61.31160471402371 16.10117679577
  endloop
endfacet
facet normal -3.679830148463307e-05 -0.9999998343280992 0.0005744472638659048
  outer loop
    vertex 37.87351847391869 61.31160471402371 16.10117679577
    vertex 40.72047112720548 61.31160471402373 15.825980649309697
    vertex 41.38929298854368 61.31160471402371 16.13104948185327
  endloop
endfacet
facet normal -3.679830148463307e-05 -0.9999998343280992 0.0005744472638659048
  outer loop
    vertex 37.87351847391869 61.31160471402371 16.10117679577
    vertex 41.38929298854368 61.31160471402371 16.13104948185327
    vertex 37.2755116113422 61.311604714023666 16.528701610377087
  endloop
endfacet
facet normal -3.679830148463307e-05 -0.9999998343280992 0.0005744472638659048
  outer loop
    vertex 68.6778844324917 61.29984371402352 7.915995713778691
    vertex 67.25437755226893 61.29984371402352 7.9384907047115565
    vertex 67.96505939645141 61.29984371402352 7.859431482530013
  endloop
endfacet
facet normal -3.679830148463307e-05 -0.9999998343280992 0.0005744472638659048
  outer loop
    vertex 67.25437755226893 61.29984371402352 7.9384907047115565
    vertex 68.6778844324917 61.29984371402352 7.915995713778691
    vertex 69.36720374457781 61.29984371402353 8.106148100688978
  endloop
endfacet
facet normal -3.679830148463307e-05 -0.9999998343280992 0.0005744472638659048
  outer loop
    vertex 67.25437755226893 61.29984371402352 7.9384907047115565
    vertex 69.36720374457781 61.29984371402353 8.106148100688978
    vertex 66.57141069929034 61.29984371402354 8.150328666359353
  endloop
endfacet
facet normal -3.679830148463307e-05 -0.9999998343280992 0.0005744472638659048
  outer loop
    vertex 66.57141069929034 61.29984371402354 8.150328666359353
    vertex 69.36720374457781 61.29984371402353 8.106148100688978
    vertex 70.00821420135311 61.29984371402355 8.42304656797352
  endloop
endfacet
facet normal -3.679830148463307e-05 -0.9999998343280992 0.0005744472638659048
  outer loop
    vertex 66.57141069929034 61.29984371402354 8.150328666359353
    vertex 70.00821420135311 61.29984371402355 8.42304656797352
    vertex 65.94073339428444 61.29984371402355 8.487323000455744
  endloop
endfacet
facet normal -3.679830148463307e-05 -0.9999998343280992 0.0005744472638659048
  outer loop
    vertex 65.94073339428444 61.29984371402355 8.487323000455744
    vertex 70.00821420135311 61.29984371402355 8.42304656797352
    vertex 70.57785092376714 61.29984371402359 8.855288454814643
  endloop
endfacet
facet normal -3.679830148463307e-05 -0.9999998343280992 0.0005744472638659048
  outer loop
    vertex 65.94073339428444 61.29984371402355 8.487323000455744
    vertex 70.57785092376714 61.29984371402359 8.855288454814643
    vertex 65.38503870817709 61.29984371402359 8.937347955424501
  endloop
endfacet
facet normal -3.679830148463307e-05 -0.9999998343280992 0.0005744472638659048
  outer loop
    vertex 65.38503870817709 61.29984371402359 8.937347955424501
    vertex 70.57785092376714 61.29984371402359 8.855288454814643
    vertex 71.05561720702156 61.299843714023616 9.38732080613158
  endloop
endfacet
facet normal -3.679830148463307e-05 -0.9999998343280992 0.0005744472638659048
  outer loop
    vertex 65.38503870817709 61.29984371402359 8.937347955424501
    vertex 71.05561720702156 61.299843714023616 9.38732080613158
    vertex 64.92432168252896 61.299843714023616 9.484210704695755
  endloop
endfacet
facet normal -3.679830148463307e-05 -0.9999998343280992 0.0005744472638659048
  outer loop
    vertex 64.92432168252896 61.299843714023616 9.484210704695755
    vertex 71.05561720702156 61.299843714023616 9.38732080613158
    vertex 71.42432203430663 61.29984371402365 10.000000000000004
  endloop
endfacet
facet normal -3.679830148463307e-05 -0.9999998343280992 0.0005744472638659048
  outer loop
    vertex 64.92432168252896 61.299843714023616 9.484210704695755
    vertex 71.42432203430663 61.29984371402365 10.000000000000004
    vertex 64.57515986667757 61.299843714023666 10.108233998022156
  endloop
endfacet
facet normal -0.95288192535394 -2.7716788547117262e-14 0.3033414517235787
  outer loop
    vertex 36.389292988543914 63.985164475316 20.565524740927238
    vertex 36.16630304269369 61.311604714023325 19.865049788594877
    vertex 36.38929298854367 61.31160471402326 20.56552474092595
  endloop
endfacet
facet normal -0.9793981999893157 -1.8464491614334903e-14 0.20193851999479603
  outer loop
    vertex 36.16630304269369 61.311604714023325 19.865049788594877
    vertex 36.389292988543914 63.985164475316 20.565524740927238
    vertex 36.16630304269369 73.70031871402328 19.865049788596135
  endloop
endfacet
facet normal -0.9793981999893157 -1.8464491614334938e-14 0.20193851999479645
  outer loop
    vertex 36.16630304269369 73.70031871402328 19.865049788596135
    vertex 36.389292988543914 63.985164475316 20.565524740927238
    vertex 36.38929298854388 70.98516447531499 20.565524740927202
  endloop
endfacet
facet normal -0.9793981999893157 -1.8464491614334938e-14 0.20193851999479645
  outer loop
    vertex 36.16630304269369 73.70031871402328 19.865049788596135
    vertex 36.38929298854388 70.98516447531499 20.565524740927202
    vertex 36.38929298854367 73.70031871402321 20.56552474092721
  endloop
endfacet
facet normal 0.4149963900239605 9.545091186758869e-14 -0.9098230576695014
  outer loop
    vertex 41.38929298854368 73.70031871402367 16.13104948185453
    vertex 40.72047112720548 61.31160471402373 15.825980649309697
    vertex 40.72047112720548 73.70031871402371 15.825980649310955
  endloop
endfacet
facet normal 0.3174870636415841 9.899407675301826e-14 -0.9482626030906445
  outer loop
    vertex 40.72047112720548 61.31160471402373 15.825980649309697
    vertex 41.38929298854368 73.70031871402367 16.13104948185453
    vertex 41.38929298854368 61.31160471402371 16.13104948185327
  endloop
endfacet
facet normal 0.31748706364158374 9.899407675301829e-14 -0.9482626030906446
  outer loop
    vertex 40.72047112720548 73.70031871402371 15.825980649310955
    vertex 40.00279240307079 61.31160471402375 15.66683630062646
    vertex 40.00279240307079 73.70031871402372 15.666836300627718
  endloop
endfacet
facet normal 0.11311450995454242 1.0338010504448525e-13 -0.9935819581885251
  outer loop
    vertex 40.00279240307079 61.31160471402375 15.66683630062646
    vertex 40.72047112720548 73.70031871402371 15.825980649310955
    vertex 40.72047112720548 61.31160471402373 15.825980649309697
  endloop
endfacet
facet normal 0.11311450995454192 1.0338010504448526e-13 -0.9935819581885251
  outer loop
    vertex 40.00279240307079 73.70031871402372 15.666836300627718
    vertex 39.26770692217018 61.31160471402375 15.66059045700823
    vertex 39.26770692217018 73.70031871402372 15.660590457009487
  endloop
endfacet
facet normal -0.0962149460510866 1.0382503542285875e-13 -0.9953605799690816
  outer loop
    vertex 39.26770692217018 61.31160471402375 15.66059045700823
    vertex 40.00279240307079 73.70031871402372 15.666836300627718
    vertex 40.00279240307079 61.31160471402375 15.66683630062646
  endloop
endfacet
facet normal -0.09621494605108588 1.0382503542285878e-13 -0.9953605799690818
  outer loop
    vertex 39.26770692217018 73.70031871402372 15.660590457009487
    vertex 38.54742758916191 61.31160471402373 15.807516823718144
    vertex 38.54742758916191 73.70031871402371 15.807516823719402
  endloop
endfacet
facet normal -0.30132807216804736 9.972014669295236e-14 -0.9535205256959539
  outer loop
    vertex 38.54742758916191 61.31160471402373 15.807516823718144
    vertex 39.26770692217018 73.70031871402372 15.660590457009487
    vertex 39.26770692217018 61.31160471402375 15.66059045700823
  endloop
endfacet
facet normal -0.3013280721680473 9.972014669295232e-14 -0.9535205256959538
  outer loop
    vertex 38.54742758916191 73.70031871402371 15.807516823719402
    vertex 37.87351847391869 61.31160471402371 16.10117679577
    vertex 37.87351847391869 73.70031871402368 16.10117679577126
  endloop
endfacet
facet normal -0.4932364041327361 9.124532322566561e-14 -0.8698953095851295
  outer loop
    vertex 37.87351847391869 61.31160471402371 16.10117679577
    vertex 38.54742758916191 73.70031871402371 15.807516823719402
    vertex 38.54742758916191 61.31160471402373 15.807516823718144
  endloop
endfacet
facet normal -0.49323640413273656 9.124532322566561e-14 -0.8698953095851294
  outer loop
    vertex 37.87351847391869 73.70031871402368 16.10117679577126
    vertex 37.2755116113422 61.311604714023666 16.528701610377087
    vertex 37.2755116113422 73.70031871402364 16.528701610378345
  endloop
endfacet
facet normal -0.6635301379681535 7.877194860486852e-14 -0.7481495545731235
  outer loop
    vertex 37.2755116113422 61.311604714023666 16.528701610377087
    vertex 37.87351847391869 73.70031871402368 16.10117679577126
    vertex 37.87351847391869 61.31160471402371 16.10117679577
  endloop
endfacet
facet normal -0.8047466642846719 6.284663086169097e-14 -0.5936184012669199
  outer loop
    vertex 36.779612848983106 73.70031871402358 17.071356281678717
    vertex 37.2755116113422 61.311604714023666 16.528701610377087
    vertex 36.779612848983106 61.311604714023616 17.07135628167746
  endloop
endfacet
facet normal -0.6635301379681535 7.877194860486852e-14 -0.7481495545731235
  outer loop
    vertex 37.2755116113422 61.311604714023666 16.528701610377087
    vertex 36.779612848983106 73.70031871402358 17.071356281678717
    vertex 37.2755116113422 73.70031871402364 16.528701610378345
  endloop
endfacet
facet normal -0.9106975946341446 4.416724902577328e-14 -0.4130737114941879
  outer loop
    vertex 36.40755345479199 73.70031871402351 17.705360604998
    vertex 36.779612848983106 61.311604714023616 17.07135628167746
    vertex 36.40755345479199 61.31160471402355 17.70536060499674
  endloop
endfacet
facet normal -0.8047466642846717 6.284663086169099e-14 -0.5936184012669199
  outer loop
    vertex 36.779612848983106 61.311604714023616 17.07135628167746
    vertex 36.40755345479199 73.70031871402351 17.705360604998
    vertex 36.779612848983106 73.70031871402358 17.071356281678717
  endloop
endfacet
facet normal -0.9767399489734547 2.3552370681145177e-14 -0.21442731187825245
  outer loop
    vertex 36.17563780982889 73.70031871402344 18.40293125261353
    vertex 36.40755345479199 61.31160471402355 17.70536060499674
    vertex 36.17563780982889 61.31160471402348 18.402931252612273
  endloop
endfacet
facet normal -0.9106975946341445 4.416724902577327e-14 -0.41307371149418787
  outer loop
    vertex 36.40755345479199 61.31160471402355 17.70536060499674
    vertex 36.17563780982889 73.70031871402344 18.40293125261353
    vertex 36.40755345479199 73.70031871402351 17.705360604998
  endloop
endfacet
facet normal -0.9999796202646868 1.9053807101269952e-15 -0.0063842818932867505
  outer loop
    vertex 36.09402891792679 73.70031871402337 19.133499294315268
    vertex 36.17563780982889 61.31160471402348 18.402931252612273
    vertex 36.09402891792679 61.311604714023396 19.13349929431401
  endloop
endfacet
facet normal -0.9767399489734548 2.3552370681145105e-14 -0.21442731187825176
  outer loop
    vertex 36.17563780982889 61.31160471402348 18.402931252612273
    vertex 36.09402891792679 73.70031871402337 19.133499294315268
    vertex 36.17563780982889 73.70031871402344 18.40293125261353
  endloop
endfacet
facet normal -0.9793981999893157 -1.8464491614334938e-14 0.20193851999479645
  outer loop
    vertex 36.16630304269369 73.70031871402328 19.865049788596135
    vertex 36.09402891792679 61.311604714023396 19.13349929431401
    vertex 36.16630304269369 61.311604714023325 19.865049788594877
  endloop
endfacet
facet normal -0.9999796202646869 1.905380710126906e-15 -0.00638428189328589
  outer loop
    vertex 36.09402891792679 61.311604714023396 19.13349929431401
    vertex 36.16630304269369 73.70031871402328 19.865049788596135
    vertex 36.09402891792679 73.70031871402337 19.133499294315268
  endloop
endfacet
facet normal 0.7886412274047653 0.0 0.6148536528618052
  outer loop
    vertex 158.87262323594672 61.299843714023666 13.492110704756204
    vertex 158.0810370147756 73.69707271402368 14.234601318172823
    vertex 158.0810370147756 61.299843714023666 14.234601318172823
  endloop
endfacet
facet normal 0.6841267341124415 0.0 0.7293631548636419
  outer loop
    vertex 158.0810370147756 73.69707271402368 14.234601318172823
    vertex 158.87262323594672 61.299843714023666 13.492110704756204
    vertex 158.87262323594672 73.69707271402368 13.492110704756204
  endloop
endfacet
facet normal -0.8552317346186499 1.5569413691745467e-18 -0.5182457719086334
  outer loop
    vertex 152.8561870951029 73.69707271402368 9.999999999999996
    vertex 153.41864519226266 61.299843714023666 9.071807161469586
    vertex 152.8561870951029 61.299843714023666 9.999999999999996
  endloop
endfacet
facet normal -0.7648494564734346 7.879400318089925e-19 -0.6442090568536677
  outer loop
    vertex 153.41864519226266 61.299843714023666 9.071807161469586
    vertex 152.8561870951029 73.69707271402368 9.999999999999996
    vertex 153.41864519226266 73.69707271402368 9.071807161469586
  endloop
endfacet
facet normal -0.5315480785602342 0.0 -0.8470281224250604
  outer loop
    vertex 154.23771710940045 73.69707271402368 8.359752211963615
    vertex 153.41864519226266 61.299843714023666 9.071807161469586
    vertex 153.41864519226266 73.69707271402368 9.071807161469586
  endloop
endfacet
facet normal -0.7648494564734346 7.879400318089925e-19 -0.6442090568536677
  outer loop
    vertex 153.41864519226266 61.299843714023666 9.071807161469586
    vertex 154.23771710940045 73.69707271402368 8.359752211963615
    vertex 154.23771710940045 61.299843714023666 8.359752211963615
  endloop
endfacet
facet normal -0.247449252018285 0.0 -0.9689008554416656
  outer loop
    vertex 155.2351281516914 73.69707271402368 7.931882758419822
    vertex 154.23771710940045 61.299843714023666 8.359752211963615
    vertex 154.23771710940045 73.69707271402368 8.359752211963615
  endloop
endfacet
facet normal -0.5315480785602342 0.0 -0.8470281224250604
  outer loop
    vertex 154.23771710940045 61.299843714023666 8.359752211963615
    vertex 155.2351281516914 73.69707271402368 7.931882758419822
    vertex 155.2351281516914 61.299843714023666 7.931882758419822
  endloop
endfacet
facet normal 0.060297088595518473 0.0 -0.9981804752182365
  outer loop
    vertex 156.31556062685863 73.69707271402368 7.829088190646698
    vertex 155.2351281516914 61.299843714023666 7.931882758419822
    vertex 155.2351281516914 73.69707271402368 7.931882758419822
  endloop
endfacet
facet normal -0.247449252018285 0.0 -0.9689008554416656
  outer loop
    vertex 155.2351281516914 61.299843714023666 7.931882758419822
    vertex 156.31556062685863 73.69707271402368 7.829088190646698
    vertex 156.31556062685863 61.299843714023666 7.829088190646698
  endloop
endfacet
facet normal 0.3622811315283905 0.0 -0.932068871778534
  outer loop
    vertex 157.37576289056784 73.69707271402368 8.061192082440073
    vertex 156.31556062685863 61.299843714023666 7.829088190646698
    vertex 156.31556062685863 73.69707271402368 7.829088190646698
  endloop
endfacet
facet normal 0.060297088595518473 0.0 -0.9981804752182365
  outer loop
    vertex 156.31556062685863 61.299843714023666 7.829088190646698
    vertex 157.37576289056784 73.69707271402368 8.061192082440073
    vertex 157.37576289056784 61.299843714023666 8.061192082440073
  endloop
endfacet
facet normal 0.6296437396179112 0.0 -0.7768840075326381
  outer loop
    vertex 158.31441660079292 73.69707271402368 8.606013400709127
    vertex 157.37576289056784 61.299843714023666 8.061192082440073
    vertex 157.37576289056784 73.69707271402368 8.061192082440073
  endloop
endfacet
facet normal 0.3622811315283905 0.0 -0.932068871778534
  outer loop
    vertex 157.37576289056784 61.299843714023666 8.061192082440073
    vertex 158.31441660079292 73.69707271402368 8.606013400709127
    vertex 158.31441660079292 61.299843714023666 8.606013400709127
  endloop
endfacet
facet normal 0.6296437396179112 0.0 -0.7768840075326381
  outer loop
    vertex 158.31441660079292 73.69707271402368 8.606013400709127
    vertex 159.04181921594162 61.299843714023666 9.411486238261453
    vertex 158.31441660079292 61.299843714023666 8.606013400709127
  endloop
endfacet
facet normal 0.8368343768025871 0.0 -0.5474561405276462
  outer loop
    vertex 159.04181921594162 61.299843714023666 9.411486238261453
    vertex 158.31441660079292 73.69707271402368 8.606013400709127
    vertex 159.04181921594162 73.69707271402368 9.411486238261453
  endloop
endfacet
facet normal 0.8368343768025871 0.0 -0.5474561405276462
  outer loop
    vertex 159.04181921594162 73.69707271402368 9.411486238261453
    vertex 159.48845642777763 61.299843714023666 10.400635497758262
    vertex 159.04181921594162 61.299843714023666 9.411486238261453
  endloop
endfacet
facet normal 0.9640528478164343 0.0 -0.26571056926103453
  outer loop
    vertex 159.48845642777763 61.299843714023666 10.400635497758262
    vertex 159.04181921594162 73.69707271402368 9.411486238261453
    vertex 159.48845642777763 73.69707271402368 10.400635497758262
  endloop
endfacet
facet normal 0.9640528478164343 0.0 -0.26571056926103453
  outer loop
    vertex 159.48845642777763 73.69707271402368 10.400635497758262
    vertex 159.61164530367634 61.299843714023666 11.47893302507368
    vertex 159.48845642777763 61.299843714023666 10.400635497758262
  endloop
endfacet
facet normal 0.9991415059542729 0.0 0.04142766080081956
  outer loop
    vertex 159.61164530367634 61.299843714023666 11.47893302507368
    vertex 159.48845642777763 73.69707271402368 10.400635497758262
    vertex 159.61164530367634 73.69707271402368 11.47893302507368
  endloop
endfacet
facet normal 0.9991415059542729 0.0 0.04142766080081956
  outer loop
    vertex 159.61164530367634 73.69707271402368 11.47893302507368
    vertex 159.39961328561816 61.299843714023666 12.543331202391686
    vertex 159.61164530367634 61.299843714023666 11.47893302507368
  endloop
endfacet
facet normal 0.9387470998713964 0.0 0.34460685205468955
  outer loop
    vertex 159.39961328561816 61.299843714023666 12.543331202391686
    vertex 159.61164530367634 73.69707271402368 11.47893302507368
    vertex 159.39961328561816 73.69707271402368 12.543331202391686
  endloop
endfacet
facet normal 0.9387470998713964 0.0 0.34460685205468955
  outer loop
    vertex 159.39961328561816 73.69707271402368 12.543331202391686
    vertex 158.87262323594672 61.299843714023666 13.492110704756204
    vertex 159.39961328561816 61.299843714023666 12.543331202391686
  endloop
endfacet
facet normal 0.7886412274047653 0.0 0.6148536528618052
  outer loop
    vertex 158.87262323594672 61.299843714023666 13.492110704756204
    vertex 159.39961328561816 73.69707271402368 12.543331202391686
    vertex 158.87262323594672 73.69707271402368 13.492110704756204
  endloop
endfacet
facet normal -0.8726795860165988 -3.313804352102637e-14 -0.4882932931649767
  outer loop
    vertex 64.57515986667757 61.299843714023666 10.108233998022156
    vertex 64.92432168252896 73.70349771402364 9.484210704694913
    vertex 64.92432168252896 61.299843714023616 9.484210704695755
  endloop
endfacet
facet normal -0.822433589667964 -3.8463026583110796e-14 -0.5688611347120376
  outer loop
    vertex 64.92432168252896 73.70349771402364 9.484210704694913
    vertex 64.57515986667757 61.299843714023666 10.108233998022156
    vertex 64.57515986667757 73.70349771402368 10.108233998021316
  endloop
endfacet
facet normal -0.8224335896679638 -3.846302658311082e-14 -0.568861134712038
  outer loop
    vertex 64.92432168252896 61.299843714023616 9.484210704695755
    vertex 65.38503870817709 73.7034977140236 8.93734795542366
    vertex 65.38503870817709 61.29984371402359 8.937347955424501
  endloop
endfacet
facet normal -0.7002166763172332 -4.8111693909819814e-14 -0.7139303931107339
  outer loop
    vertex 65.38503870817709 73.7034977140236 8.93734795542366
    vertex 64.92432168252896 61.299843714023616 9.484210704695755
    vertex 64.92432168252896 73.70349771402364 9.484210704694913
  endloop
endfacet
facet normal -0.5528045219565384 -5.6113116270407193e-14 -0.8333109626690407
  outer loop
    vertex 65.94073339428444 73.70349771402357 8.487323000454902
    vertex 65.38503870817709 61.29984371402359 8.937347955424501
    vertex 65.38503870817709 73.7034977140236 8.93734795542366
  endloop
endfacet
facet normal -0.7002166763172332 -4.8111693909819814e-14 -0.7139303931107339
  outer loop
    vertex 65.38503870817709 61.29984371402359 8.937347955424501
    vertex 65.94073339428444 73.70349771402357 8.487323000454902
    vertex 65.94073339428444 61.29984371402355 8.487323000455744
  endloop
endfacet
facet normal -0.38550132010558663 -6.209547291023967e-14 -0.9227072841355758
  outer loop
    vertex 66.57141069929034 73.70349771402356 8.150328666358511
    vertex 65.94073339428444 61.29984371402355 8.487323000455744
    vertex 65.94073339428444 73.70349771402357 8.487323000454902
  endloop
endfacet
facet normal -0.5528045219565388 -5.6113116270407156e-14 -0.8333109626690403
  outer loop
    vertex 65.94073339428444 61.29984371402355 8.487323000455744
    vertex 66.57141069929034 73.70349771402356 8.150328666358511
    vertex 66.57141069929034 61.29984371402354 8.150328666359353
  endloop
endfacet
facet normal -0.20432698522077727 -6.584350629197755e-14 -0.9789026933820277
  outer loop
    vertex 67.25437755226893 73.70349771402353 7.9384907047107145
    vertex 66.57141069929034 61.29984371402354 8.150328666359353
    vertex 66.57141069929034 73.70349771402356 8.150328666358511
  endloop
endfacet
facet normal -0.38550132010558646 -6.209547291023968e-14 -0.9227072841355759
  outer loop
    vertex 66.57141069929034 61.29984371402354 8.150328666359353
    vertex 67.25437755226893 73.70349771402353 7.9384907047107145
    vertex 67.25437755226893 61.29984371402352 7.9384907047115565
  endloop
endfacet
facet normal -0.015800543750116733 -6.722235443994924e-14 -0.999875163616539
  outer loop
    vertex 67.96505939645141 73.70349771402353 7.859431482529171
    vertex 67.25437755226893 61.29984371402352 7.9384907047115565
    vertex 67.25437755226893 73.70349771402353 7.9384907047107145
  endloop
endfacet
facet normal -0.20432698522077702 -6.584350629197755e-14 -0.9789026933820278
  outer loop
    vertex 67.25437755226893 61.29984371402352 7.9384907047115565
    vertex 67.96505939645141 73.70349771402353 7.859431482529171
    vertex 67.96505939645141 61.29984371402352 7.859431482530013
  endloop
endfacet
facet normal 0.17329443389132942 -6.618240355234275e-14 -0.9848700620804167
  outer loop
    vertex 68.6778844324917 73.70349771402353 7.915995713777849
    vertex 67.96505939645141 61.29984371402352 7.859431482530013
    vertex 67.96505939645141 73.70349771402353 7.859431482529171
  endloop
endfacet
facet normal -0.01580054375011688 -6.722235443994922e-14 -0.999875163616539
  outer loop
    vertex 67.96505939645141 61.29984371402352 7.859431482530013
    vertex 68.6778844324917 73.70349771402353 7.915995713777849
    vertex 68.6778844324917 61.29984371402352 7.915995713778691
  endloop
endfacet
facet normal 0.3561539201838098 -6.276107320817979e-14 -0.9344273032920777
  outer loop
    vertex 69.36720374457781 73.70349771402356 8.106148100688136
    vertex 68.6778844324917 61.29984371402352 7.915995713778691
    vertex 68.6778844324917 73.70349771402353 7.915995713777849
  endloop
endfacet
facet normal 0.17329443389132937 -6.618240355234275e-14 -0.9848700620804167
  outer loop
    vertex 68.6778844324917 61.29984371402352 7.915995713778691
    vertex 69.36720374457781 73.70349771402356 8.106148100688136
    vertex 69.36720374457781 61.29984371402353 8.106148100688978
  endloop
endfacet
facet normal 0.5261982534541246 -5.708146993364216e-14 -0.8503619218084901
  outer loop
    vertex 70.00821420135311 73.70349771402357 8.423046567972678
    vertex 69.36720374457781 61.29984371402353 8.106148100688978
    vertex 69.36720374457781 73.70349771402356 8.106148100688136
  endloop
endfacet
facet normal 0.3561539201838093 -6.27610732081798e-14 -0.9344273032920779
  outer loop
    vertex 69.36720374457781 61.29984371402353 8.106148100688978
    vertex 70.00821420135311 73.70349771402357 8.423046567972678
    vertex 70.00821420135311 61.29984371402355 8.42304656797352
  endloop
endfacet
facet normal 0.677308887680703 -4.934795757521144e-14 -0.7356987635362241
  outer loop
    vertex 70.57785092376714 73.7034977140236 8.8552884548138
    vertex 70.00821420135311 61.29984371402355 8.42304656797352
    vertex 70.00821420135311 73.70349771402357 8.423046567972678
  endloop
endfacet
facet normal 0.5261982534541247 -5.708146993364218e-14 -0.8503619218084902
  outer loop
    vertex 70.00821420135311 61.29984371402355 8.42304656797352
    vertex 70.57785092376714 73.7034977140236 8.8552884548138
    vertex 70.57785092376714 61.29984371402359 8.855288454814643
  endloop
endfacet
facet normal 0.677308887680703 -4.934795757521144e-14 -0.7356987635362241
  outer loop
    vertex 70.57785092376714 73.7034977140236 8.8552884548138
    vertex 71.05561720702156 61.299843714023616 9.38732080613158
    vertex 70.57785092376714 61.29984371402359 8.855288454814643
  endloop
endfacet
facet normal 0.8040485504059158 -4.007396711750295e-14 -0.5945636455335507
  outer loop
    vertex 71.05561720702156 61.299843714023616 9.38732080613158
    vertex 70.57785092376714 73.7034977140236 8.8552884548138
    vertex 71.05561720702156 73.70349771402364 9.387320806130738
  endloop
endfacet
facet normal 0.8040485504059153 -4.0073967117502995e-14 -0.5945636455335513
  outer loop
    vertex 71.05561720702156 73.70349771402364 9.387320806130738
    vertex 71.42432203430663 61.29984371402365 10.000000000000004
    vertex 71.05561720702156 61.299843714023616 9.38732080613158
  endloop
endfacet
facet normal 0.8568151717798385 -3.499131951724017e-14 -0.5156236625756094
  outer loop
    vertex 71.42432203430663 61.29984371402365 10.000000000000004
    vertex 71.05561720702156 73.70349771402364 9.387320806130738
    vertex 71.42432203430663 73.70349771402367 9.999999999999163
  endloop
endfacet
endsolid DrakFinSkid
