solid DRAKskid
facet normal -4.1606608369497084e-19 0.26421847376519775 -0.9644628547130208
  outer loop
    vertex 35.57101628379598 14.444817191749767 9.850744999999998
    vertex 15.571016283795986 13.406029865105685 9.56616503855172
    vertex 15.571016283795977 14.444817191749767 9.850744999999998
  endloop
endfacet
facet normal -2.0816804621125338e-19 0.2987764921889586 -0.9543231149433935
  outer loop
    vertex 15.571016283795986 13.406029865105685 9.56616503855172
    vertex 35.57101628379598 14.444817191749767 9.850744999999998
    vertex 35.57101628379598 13.406029865105685 9.56616503855172
  endloop
endfacet
facet normal 0.0 0.496455919686679 -0.8680619331637885
  outer loop
    vertex 35.57101628379598 10.449643621192873 8.27608961479612
    vertex 15.571016283795986 9.534547066046622 7.708055144703217
    vertex 15.571016283795986 10.449643621192873 8.27608961479612
  endloop
endfacet
facet normal 0.0 0.5576440555396686 -0.8300801812603835
  outer loop
    vertex 15.571016283795986 9.534547066046622 7.708055144703217
    vertex 35.57101628379598 10.449643621192873 8.27608961479612
    vertex 35.57101628379598 9.534547066046622 7.708055144703217
  endloop
endfacet
facet normal 0.0 0.0 -1.0
  outer loop
    vertex 35.57101628379598 4.574699039498191 2.133744863096764
    vertex 15.571016283795977 4.255276191749766 2.133744863096764
    vertex 15.571016283795977 4.574699039498191 2.133744863096764
  endloop
endfacet
facet normal 0.0 0.0 -1.0
  outer loop
    vertex 15.571016283795977 4.255276191749766 2.133744863096764
    vertex 35.57101628379598 4.574699039498191 2.133744863096764
    vertex 35.57101628379598 4.255276191749766 2.133744863096764
  endloop
endfacet
facet normal 0.0 0.4326928648423617 -0.9015413937887211
  outer loop
    vertex 35.57101628379598 11.403249267454521 8.776790259764914
    vertex 15.571016283795986 10.449643621192873 8.27608961479612
    vertex 15.571016283795986 11.403249267454521 8.776790259764914
  endloop
endfacet
facet normal 0.0 0.496455919686679 -0.8680619331637885
  outer loop
    vertex 15.571016283795986 10.449643621192873 8.27608961479612
    vertex 35.57101628379598 11.403249267454521 8.776790259764914
    vertex 35.57101628379598 10.449643621192873 8.27608961479612
  endloop
endfacet
facet normal 0.0 0.6159399139273879 -0.7877931342878802
  outer loop
    vertex 35.57101628379598 8.662705843132667 7.075633017890625
    vertex 15.571016283795986 7.838641845399166 6.382103355876271
    vertex 15.571016283795986 8.662705843132667 7.075633017890625
  endloop
endfacet
facet normal 0.0 0.6710411374663815 -0.7414201183052863
  outer loop
    vertex 15.571016283795986 7.838641845399166 6.382103355876271
    vertex 35.57101628379598 8.662705843132667 7.075633017890625
    vertex 35.57101628379598 7.838641845399166 6.382103355876271
  endloop
endfacet
facet normal 0.0 0.3666856045592262 -0.9303449185162644
  outer loop
    vertex 35.57101628379598 12.390418032406977 9.207560144919976
    vertex 15.571016283795986 11.403249267454521 8.776790259764914
    vertex 15.571016283795986 12.390418032406977 9.207560144919976
  endloop
endfacet
facet normal 0.0 0.4326928648423617 -0.9015413937887211
  outer loop
    vertex 15.571016283795986 11.403249267454521 8.776790259764914
    vertex 35.57101628379598 12.390418032406977 9.207560144919976
    vertex 35.57101628379598 11.403249267454521 8.776790259764914
  endloop
endfacet
facet normal 0.9570008835715106 -0.2882771696017553 0.03233546551001176
  outer loop
    vertex 47.73785632917909 85.22725766630099 -4.396798154796499
    vertex 35.57101628379598 47.0105961700041 14.983954713288702
    vertex 35.57101628379598 46.436614213496 9.866790286711423
  endloop
endfacet
facet normal 0.9570008835715106 -0.2882771696017553 0.03233546551001176
  outer loop
    vertex 35.57101628379598 47.0105961700041 14.983954713288702
    vertex 47.73785632917909 85.22725766630099 -4.396798154796499
    vertex 47.292845308994416 84.28106751516431 0.33827890149804474
  endloop
endfacet
facet normal 0.9570008835715106 -0.2882771696017553 0.03233546551001176
  outer loop
    vertex 47.292845308994416 84.28106751516431 0.33827890149804474
    vertex 47.73785632917909 85.22725766630099 -4.396798154796499
    vertex 47.73785632917908 85.4616362469521 -2.307266033340886
  endloop
endfacet
facet normal -6.027937451807383e-17 0.3657325206390865 0.9307200026576092
  outer loop
    vertex 15.571016283795977 47.01059617000408 14.983954713288707
    vertex 47.292845308994416 84.28106751516431 0.33827890149804474
    vertex 3.207238484471251 84.28106751516431 0.33827890149804474
  endloop
endfacet
facet normal -6.027937451807383e-17 0.3657325206390865 0.9307200026576092
  outer loop
    vertex 47.292845308994416 84.28106751516431 0.33827890149804474
    vertex 15.571016283795977 47.01059617000408 14.983954713288707
    vertex 35.57101628379598 47.0105961700041 14.983954713288702
  endloop
endfacet
facet normal -2.0169441903457928e-17 0.9131993057728686 0.40751322424671194
  outer loop
    vertex 3.207238484471251 84.28106751516431 0.33827890149804474
    vertex 47.73785632917908 85.4616362469521 -2.307266033340886
    vertex 2.737856329179079 85.4616362469521 -2.307266033340887
  endloop
endfacet
facet normal -2.0169441903457928e-17 0.9131993057728686 0.40751322424671194
  outer loop
    vertex 47.73785632917908 85.4616362469521 -2.307266033340886
    vertex 3.207238484471251 84.28106751516431 0.33827890149804474
    vertex 47.292845308994416 84.28106751516431 0.33827890149804474
  endloop
endfacet
facet normal -2.0816804621125287e-19 0.2987764921889586 -0.9543231149433935
  outer loop
    vertex 35.57101628379598 13.406029865105685 9.56616503855172
    vertex 15.571016283795986 12.390418032406977 9.207560144919976
    vertex 15.571016283795986 13.406029865105685 9.56616503855172
  endloop
endfacet
facet normal 0.0 0.3666856045592262 -0.9303449185162644
  outer loop
    vertex 15.571016283795986 12.390418032406977 9.207560144919976
    vertex 35.57101628379598 13.406029865105685 9.56616503855172
    vertex 35.57101628379598 12.390418032406977 9.207560144919976
  endloop
endfacet
facet normal -1.0 -1.2152590274739558e-16 -7.496711696982852e-17
  outer loop
    vertex 15.571016283795977 4.255276191749766 15.0
    vertex 15.571016283795986 6.350671922130668 4.826407957939705
    vertex 15.571016283795977 4.255276191749766 2.133744863096764
  endloop
endfacet
facet normal -1.0 -1.2152590274739558e-16 -7.496711696982852e-17
  outer loop
    vertex 15.571016283795986 6.350671922130668 4.826407957939705
    vertex 15.571016283795977 4.255276191749766 15.0
    vertex 15.571016283795986 7.066629164369036 5.631063220608564
  endloop
endfacet
facet normal -1.0 -1.2152590274739558e-16 -7.496711696982852e-17
  outer loop
    vertex 15.571016283795986 7.066629164369036 5.631063220608564
    vertex 15.571016283795977 4.255276191749766 15.0
    vertex 15.571016283795986 7.838641845399166 6.382103355876271
  endloop
endfacet
facet normal -1.0 -1.2152590274739558e-16 -7.496711696982852e-17
  outer loop
    vertex 15.571016283795986 7.838641845399166 6.382103355876271
    vertex 15.571016283795977 4.255276191749766 15.0
    vertex 15.571016283795986 8.662705843132667 7.075633017890625
  endloop
endfacet
facet normal -1.0 -1.2152590274739558e-16 -7.496711696982852e-17
  outer loop
    vertex 15.571016283795986 8.662705843132667 7.075633017890625
    vertex 15.571016283795977 4.255276191749766 15.0
    vertex 15.571016283795986 9.534547066046622 7.708055144703217
  endloop
endfacet
facet normal -1.0 -1.2152590274739558e-16 -7.496711696982852e-17
  outer loop
    vertex 15.571016283795986 9.534547066046622 7.708055144703217
    vertex 15.571016283795977 4.255276191749766 15.0
    vertex 15.571016283795986 10.449643621192873 8.27608961479612
  endloop
endfacet
facet normal -1.0 -1.2152590274739558e-16 -7.496711696982852e-17
  outer loop
    vertex 15.571016283795986 10.449643621192873 8.27608961479612
    vertex 15.571016283795977 4.255276191749766 15.0
    vertex 15.571016283795986 11.403249267454521 8.776790259764914
  endloop
endfacet
facet normal -1.0 -1.2152590274739558e-16 -7.496711696982852e-17
  outer loop
    vertex 15.571016283795986 11.403249267454521 8.776790259764914
    vertex 15.571016283795977 4.255276191749766 15.0
    vertex 15.571016283795986 12.390418032406977 9.207560144919976
  endloop
endfacet
facet normal -1.0 -1.2152590274739558e-16 -7.496711696982852e-17
  outer loop
    vertex 15.571016283795986 12.390418032406977 9.207560144919976
    vertex 15.571016283795977 4.255276191749766 15.0
    vertex 15.571016283795986 13.406029865105685 9.56616503855172
  endloop
endfacet
facet normal -1.0 -1.2152590274739558e-16 -7.496711696982852e-17
  outer loop
    vertex 15.571016283795986 13.406029865105685 9.56616503855172
    vertex 15.571016283795977 4.255276191749766 15.0
    vertex 15.571016283795977 14.444817191749767 9.850744999999998
  endloop
endfacet
facet normal -1.0 -1.2152590274739558e-16 -7.496711696982852e-17
  outer loop
    vertex 15.571016283795977 14.444817191749767 9.850744999999998
    vertex 15.571016283795977 4.255276191749766 15.0
    vertex 15.571016283795977 47.01059617000408 14.983954713288707
  endloop
endfacet
facet normal -1.0 -1.2152590274739558e-16 -7.496711696982852e-17
  outer loop
    vertex 15.571016283795977 4.255276191749766 2.133744863096764
    vertex 15.571016283795986 6.350671922130668 4.826407957939705
    vertex 15.571016283795986 5.694483503552507 3.97231099401924
  endloop
endfacet
facet normal -1.0 -1.2152590274739558e-16 -7.496711696982852e-17
  outer loop
    vertex 15.571016283795977 4.255276191749766 2.133744863096764
    vertex 15.571016283795986 5.694483503552507 3.97231099401924
    vertex 15.571016283795986 5.101467296435742 3.073202189395959
  endloop
endfacet
facet normal -1.0 -1.2152590274739558e-16 -7.496711696982852e-17
  outer loop
    vertex 15.571016283795977 4.255276191749766 2.133744863096764
    vertex 15.571016283795986 5.101467296435742 3.073202189395959
    vertex 15.571016283795977 4.574699039498191 2.133744863096764
  endloop
endfacet
facet normal -1.0 -1.2152590274739558e-16 -7.496711696982852e-17
  outer loop
    vertex 15.571016283795977 14.444817191749767 9.850744999999998
    vertex 15.571016283795977 47.01059617000408 14.983954713288707
    vertex 15.571016283795977 46.436614213496 9.866790286711423
  endloop
endfacet
facet normal 1.0 -2.2158053287768455e-17 3.9334033831578925e-16
  outer loop
    vertex 35.57101628379598 46.54862848446257 9.825601862946641
    vertex 35.57101628379598 46.436614213496 9.866790286711423
    vertex 35.57101628379598 14.444817191749767 9.850744999999998
  endloop
endfacet
facet normal 1.0 -2.2158053287768455e-17 3.9334033831578925e-16
  outer loop
    vertex 35.57101628379598 4.574699039498191 2.133744863096764
    vertex 35.57101628379598 4.255276191749766 15.0
    vertex 35.57101628379598 4.255276191749766 2.133744863096764
  endloop
endfacet
facet normal 1.0 -2.2158053287768455e-17 3.9334033831578925e-16
  outer loop
    vertex 35.57101628379598 4.255276191749766 15.0
    vertex 35.57101628379598 4.574699039498191 2.133744863096764
    vertex 35.57101628379598 5.101467296435742 3.073202189395959
  endloop
endfacet
facet normal 1.0 -2.2158053287768455e-17 3.9334033831578925e-16
  outer loop
    vertex 35.57101628379598 4.255276191749766 15.0
    vertex 35.57101628379598 5.101467296435742 3.073202189395959
    vertex 35.57101628379598 5.694483503552507 3.97231099401924
  endloop
endfacet
facet normal 1.0 -2.2158053287768455e-17 3.9334033831578925e-16
  outer loop
    vertex 35.57101628379598 4.255276191749766 15.0
    vertex 35.57101628379598 5.694483503552507 3.97231099401924
    vertex 35.57101628379598 6.350671922130668 4.826407957939705
  endloop
endfacet
facet normal 1.0 -2.2158053287768455e-17 3.9334033831578925e-16
  outer loop
    vertex 35.57101628379598 4.255276191749766 15.0
    vertex 35.57101628379598 6.350671922130668 4.826407957939705
    vertex 35.57101628379598 7.066629164369036 5.631063220608564
  endloop
endfacet
facet normal 1.0 -2.2158053287768455e-17 3.9334033831578925e-16
  outer loop
    vertex 35.57101628379598 4.255276191749766 15.0
    vertex 35.57101628379598 7.066629164369036 5.631063220608564
    vertex 35.57101628379598 7.838641845399166 6.382103355876271
  endloop
endfacet
facet normal 1.0 -2.2158053287768455e-17 3.9334033831578925e-16
  outer loop
    vertex 35.57101628379598 4.255276191749766 15.0
    vertex 35.57101628379598 7.838641845399166 6.382103355876271
    vertex 35.57101628379598 8.662705843132667 7.075633017890625
  endloop
endfacet
facet normal 1.0 -2.2158053287768455e-17 3.9334033831578925e-16
  outer loop
    vertex 35.57101628379598 4.255276191749766 15.0
    vertex 35.57101628379598 8.662705843132667 7.075633017890625
    vertex 35.57101628379598 9.534547066046622 7.708055144703217
  endloop
endfacet
facet normal 1.0 -2.2158053287768455e-17 3.9334033831578925e-16
  outer loop
    vertex 35.57101628379598 4.255276191749766 15.0
    vertex 35.57101628379598 9.534547066046622 7.708055144703217
    vertex 35.57101628379598 10.449643621192873 8.27608961479612
  endloop
endfacet
facet normal 1.0 -2.2158053287768455e-17 3.9334033831578925e-16
  outer loop
    vertex 35.57101628379598 4.255276191749766 15.0
    vertex 35.57101628379598 10.449643621192873 8.27608961479612
    vertex 35.57101628379598 11.403249267454521 8.776790259764914
  endloop
endfacet
facet normal 1.0 -2.2158053287768455e-17 3.9334033831578925e-16
  outer loop
    vertex 35.57101628379598 4.255276191749766 15.0
    vertex 35.57101628379598 11.403249267454521 8.776790259764914
    vertex 35.57101628379598 12.390418032406977 9.207560144919976
  endloop
endfacet
facet normal 1.0 -2.2158053287768455e-17 3.9334033831578925e-16
  outer loop
    vertex 35.57101628379598 4.255276191749766 15.0
    vertex 35.57101628379598 12.390418032406977 9.207560144919976
    vertex 35.57101628379598 13.406029865105685 9.56616503855172
  endloop
endfacet
facet normal 1.0 -2.2158053287768455e-17 3.9334033831578925e-16
  outer loop
    vertex 35.57101628379598 4.255276191749766 15.0
    vertex 35.57101628379598 13.406029865105685 9.56616503855172
    vertex 35.57101628379598 14.444817191749767 9.850744999999998
  endloop
endfacet
facet normal 1.0 -2.2158053287768455e-17 3.9334033831578925e-16
  outer loop
    vertex 35.57101628379598 4.255276191749766 15.0
    vertex 35.57101628379598 14.444817191749767 9.850744999999998
    vertex 35.57101628379598 47.0105961700041 14.983954713288702
  endloop
endfacet
facet normal 1.0 -2.2158053287768455e-17 3.9334033831578925e-16
  outer loop
    vertex 35.57101628379598 47.0105961700041 14.983954713288702
    vertex 35.57101628379598 14.444817191749767 9.850744999999998
    vertex 35.57101628379598 46.436614213496 9.866790286711423
  endloop
endfacet
facet normal 0.0 0.6710411374663815 -0.7414201183052863
  outer loop
    vertex 35.57101628379598 7.838641845399166 6.382103355876271
    vertex 15.571016283795986 7.066629164369036 5.631063220608564
    vertex 15.571016283795986 7.838641845399166 6.382103355876271
  endloop
endfacet
facet normal 0.0 0.7226619380709188 -0.691201651664392
  outer loop
    vertex 15.571016283795986 7.066629164369036 5.631063220608564
    vertex 35.57101628379598 7.838641845399166 6.382103355876271
    vertex 35.57101628379598 7.066629164369036 5.631063220608564
  endloop
endfacet
facet normal -0.9525017482425777 -0.30263524239648804 0.03394598141831154
  outer loop
    vertex 15.571016283795977 47.01059617000408 14.983954713288707
    vertex 2.737856329179079 85.22725766630099 -4.3967981547965005
    vertex 15.571016283795977 46.436614213496 9.866790286711423
  endloop
endfacet
facet normal -0.9525017482425777 -0.30263524239648804 0.03394598141831154
  outer loop
    vertex 2.737856329179079 85.22725766630099 -4.3967981547965005
    vertex 15.571016283795977 47.01059617000408 14.983954713288707
    vertex 3.207238484471251 84.28106751516431 0.33827890149804474
  endloop
endfacet
facet normal -0.9525017482425777 -0.30263524239648804 0.03394598141831154
  outer loop
    vertex 2.737856329179079 85.22725766630099 -4.3967981547965005
    vertex 3.207238484471251 84.28106751516431 0.33827890149804474
    vertex 2.737856329179079 85.4616362469521 -2.307266033340887
  endloop
endfacet
facet normal 8.267402574370619e-20 0.0005015437139230454 -0.9999998742269436
  outer loop
    vertex 35.57101628379598 14.444817191749767 9.850744999999998
    vertex 15.571016283795977 14.444817191749767 9.850744999999998
    vertex 15.571016283795977 46.436614213496 9.866790286711423
  endloop
endfacet
facet normal -4.5783459057164306e-20 0.8540629259470018 -0.5201697016578785
  outer loop
    vertex 15.571016283795986 5.101467296435742 3.073202189395959
    vertex 35.57101628379598 4.574699039498191 2.133744863096764
    vertex 15.571016283795977 4.574699039498191 2.133744863096764
  endloop
endfacet
facet normal -9.150753371913821e-20 0.8722398430973843 -0.48907837420340966
  outer loop
    vertex 35.57101628379598 4.574699039498191 2.133744863096764
    vertex 15.571016283795986 5.101467296435742 3.073202189395959
    vertex 35.57101628379598 5.101467296435742 3.073202189395959
  endloop
endfacet
facet normal -0.002055029838857017 -0.0007831804149795363 -0.9999975817374755
  outer loop
    vertex 35.57101628379598 14.444817191749767 9.850744999999998
    vertex 15.571016283795977 46.436614213496 9.866790286711423
    vertex 35.57101628379598 46.54862848446257 9.825601862946641
  endloop
endfacet
facet normal 0.0 0.5576440555396686 -0.8300801812603835
  outer loop
    vertex 35.57101628379598 9.534547066046622 7.708055144703217
    vertex 15.571016283795986 8.662705843132667 7.075633017890625
    vertex 15.571016283795986 9.534547066046622 7.708055144703217
  endloop
endfacet
facet normal 0.0 0.6159399139273879 -0.7877931342878802
  outer loop
    vertex 15.571016283795986 8.662705843132667 7.075633017890625
    vertex 35.57101628379598 9.534547066046622 7.708055144703217
    vertex 35.57101628379598 8.662705843132667 7.075633017890625
  endloop
endfacet
facet normal 0.0 0.8144107646094608 -0.5802888129959372
  outer loop
    vertex 15.571016283795986 5.694483503552507 3.97231099401924
    vertex 35.57101628379598 5.101467296435742 3.073202189395959
    vertex 15.571016283795986 5.101467296435742 3.073202189395959
  endloop
endfacet
facet normal -4.578345905716419e-20 0.8540629259470018 -0.5201697016578785
  outer loop
    vertex 35.57101628379598 5.101467296435742 3.073202189395959
    vertex 15.571016283795986 5.694483503552507 3.97231099401924
    vertex 35.57101628379598 5.694483503552507 3.97231099401924
  endloop
endfacet
facet normal 4.423281210113788e-17 -0.3451151465080474 -0.9385603526948754
  outer loop
    vertex 47.73785632917909 85.22725766630099 -4.396798154796499
    vertex 15.571016283795977 46.436614213496 9.866790286711423
    vertex 2.737856329179079 85.22725766630099 -4.3967981547965005
  endloop
endfacet
facet normal 4.423281210113788e-17 -0.3451151465080474 -0.9385603526948754
  outer loop
    vertex 15.571016283795977 46.436614213496 9.866790286711423
    vertex 47.73785632917909 85.22725766630099 -4.396798154796499
    vertex 35.57101628379598 46.54862848446257 9.825601862946641
  endloop
endfacet
facet normal 4.423281210113788e-17 -0.3451151465080474 -0.9385603526948754
  outer loop
    vertex 35.57101628379598 46.54862848446257 9.825601862946641
    vertex 47.73785632917909 85.22725766630099 -4.396798154796499
    vertex 35.57101628379598 46.436614213496 9.866790286711423
  endloop
endfacet
facet normal 0.0 0.7705345792218959 -0.6373981975369368
  outer loop
    vertex 15.571016283795986 6.350671922130668 4.826407957939705
    vertex 35.57101628379598 5.694483503552507 3.97231099401924
    vertex 15.571016283795986 5.694483503552507 3.97231099401924
  endloop
endfacet
facet normal 0.0 0.8144107646094608 -0.5802888129959372
  outer loop
    vertex 35.57101628379598 5.694483503552507 3.97231099401924
    vertex 15.571016283795986 6.350671922130668 4.826407957939705
    vertex 35.57101628379598 6.350671922130668 4.826407957939705
  endloop
endfacet
facet normal -1.7456574835334908e-17 0.9937679191605965 -0.1114689322063254
  outer loop
    vertex 2.737856329179079 85.4616362469521 -2.307266033340887
    vertex 47.73785632917909 85.22725766630099 -4.396798154796499
    vertex 2.737856329179079 85.22725766630099 -4.3967981547965005
  endloop
endfacet
facet normal -1.7456574835334908e-17 0.9937679191605965 -0.1114689322063254
  outer loop
    vertex 47.73785632917909 85.22725766630099 -4.396798154796499
    vertex 2.737856329179079 85.4616362469521 -2.307266033340887
    vertex 47.73785632917908 85.4616362469521 -2.307266033340886
  endloop
endfacet
facet normal 0.0 -1.0 0.0
  outer loop
    vertex 35.57101628379598 4.255276191749766 15.0
    vertex 15.571016283795977 4.255276191749766 2.133744863096764
    vertex 35.57101628379598 4.255276191749766 2.133744863096764
  endloop
endfacet
facet normal 0.0 -1.0 0.0
  outer loop
    vertex 15.571016283795977 4.255276191749766 2.133744863096764
    vertex 35.57101628379598 4.255276191749766 15.0
    vertex 15.571016283795977 4.255276191749766 15.0
  endloop
endfacet
facet normal 0.0 0.7226619380709188 -0.691201651664392
  outer loop
    vertex 15.571016283795986 7.066629164369036 5.631063220608564
    vertex 35.57101628379598 6.350671922130668 4.826407957939705
    vertex 15.571016283795986 6.350671922130668 4.826407957939705
  endloop
endfacet
facet normal 0.0 0.7705345792218959 -0.6373981975369368
  outer loop
    vertex 35.57101628379598 6.350671922130668 4.826407957939705
    vertex 15.571016283795986 7.066629164369036 5.631063220608564
    vertex 35.57101628379598 7.066629164369036 5.631063220608564
  endloop
endfacet
facet normal 1.4078810570359294e-16 0.000375281616172632 0.9999999295818519
  outer loop
    vertex 35.57101628379598 4.255276191749766 15.0
    vertex 15.571016283795977 47.01059617000408 14.983954713288707
    vertex 15.571016283795977 4.255276191749766 15.0
  endloop
endfacet
facet normal 1.4078810570359294e-16 0.000375281616172632 0.9999999295818519
  outer loop
    vertex 15.571016283795977 47.01059617000408 14.983954713288707
    vertex 35.57101628379598 4.255276191749766 15.0
    vertex 35.57101628379598 47.0105961700041 14.983954713288702
  endloop
endfacet
endsolid DRAKskid
