solid Untitled-5a15c73e
facet normal 0.0 0.0 -1.0
  outer loop
    vertex 7.061038908736312 6.255936372115491 0.0
    vertex 29.284002158155243 7.00004112678524 0.0
    vertex 29.18603890873631 6.255936372115491 0.0
  endloop
endfacet
facet normal 0.0 0.0 -1.0
  outer loop
    vertex 29.284002158155243 7.00004112678524 0.0
    vertex 7.061038908736312 6.255936372115491 0.0
    vertex 29.57121587285605 7.693436372115492 0.0
  endloop
endfacet
facet normal 0.0 0.0 -1.0
  outer loop
    vertex 29.57121587285605 7.693436372115492 0.0
    vertex 7.061038908736312 6.255936372115491 0.0
    vertex 32.061038908736315 12.90593637211549 0.0
  endloop
endfacet
facet normal 0.0 0.0 -1.0
  outer loop
    vertex 29.57121587285605 7.693436372115492 0.0
    vertex 32.061038908736315 12.90593637211549 0.0
    vertex 30.02810691282499 8.288868368026815 0.0
  endloop
endfacet
facet normal 0.0 0.0 -1.0
  outer loop
    vertex 30.02810691282499 8.288868368026815 0.0
    vertex 32.061038908736315 12.90593637211549 0.0
    vertex 30.62353890873631 8.745759407995752 0.0
  endloop
endfacet
facet normal 0.0 0.0 -1.0
  outer loop
    vertex 30.62353890873631 8.745759407995752 0.0
    vertex 32.061038908736315 12.90593637211549 0.0
    vertex 31.316934154066566 9.032973122696562 0.0
  endloop
endfacet
facet normal 0.0 0.0 -1.0
  outer loop
    vertex 31.316934154066566 9.032973122696562 0.0
    vertex 32.061038908736315 12.90593637211549 0.0
    vertex 32.061038908736315 9.13093637211549 0.0
  endloop
endfacet
facet normal 0.0 0.0 -1.0
  outer loop
    vertex 32.061038908736315 9.13093637211549 0.0
    vertex 32.061038908736315 12.90593637211549 0.0
    vertex 57.061038908736315 6.255936372115491 0.0
  endloop
endfacet
facet normal 0.0 0.0 -1.0
  outer loop
    vertex 32.061038908736315 9.13093637211549 0.0
    vertex 57.061038908736315 6.255936372115491 0.0
    vertex 32.80514366340606 9.032973122696562 0.0
  endloop
endfacet
facet normal 0.0 0.0 -1.0
  outer loop
    vertex 32.80514366340606 9.032973122696562 0.0
    vertex 57.061038908736315 6.255936372115491 0.0
    vertex 33.498538908736315 8.74575940799575 0.0
  endloop
endfacet
facet normal 0.0 0.0 -1.0
  outer loop
    vertex 33.498538908736315 8.74575940799575 0.0
    vertex 57.061038908736315 6.255936372115491 0.0
    vertex 34.093970904647634 8.288868368026813 0.0
  endloop
endfacet
facet normal 0.0 0.0 -1.0
  outer loop
    vertex 34.093970904647634 8.288868368026813 0.0
    vertex 57.061038908736315 6.255936372115491 0.0
    vertex 34.55086194461658 7.693436372115491 0.0
  endloop
endfacet
facet normal 0.0 0.0 -1.0
  outer loop
    vertex 34.55086194461658 7.693436372115491 0.0
    vertex 57.061038908736315 6.255936372115491 0.0
    vertex 34.83807565931738 7.000041126785238 0.0
  endloop
endfacet
facet normal 0.0 0.0 -1.0
  outer loop
    vertex 34.83807565931738 7.000041126785238 0.0
    vertex 57.061038908736315 6.255936372115491 0.0
    vertex 34.936038908736315 6.255936372115491 0.0
  endloop
endfacet
facet normal 0.0 0.0 -1.0
  outer loop
    vertex 7.061038908736312 6.255936372115491 0.0
    vertex 29.57121587285605 4.818436372115491 0.0
    vertex 32.061038908736315 -0.39406362788451 0.0
  endloop
endfacet
facet normal 0.0 0.0 -1.0
  outer loop
    vertex 29.57121587285605 4.818436372115491 0.0
    vertex 7.061038908736312 6.255936372115491 0.0
    vertex 29.284002158155243 5.511831617445744 0.0
  endloop
endfacet
facet normal 0.0 0.0 -1.0
  outer loop
    vertex 29.284002158155243 5.511831617445744 0.0
    vertex 7.061038908736312 6.255936372115491 0.0
    vertex 29.18603890873631 6.255936372115491 0.0
  endloop
endfacet
facet normal 0.0 0.0 -1.0
  outer loop
    vertex 32.061038908736315 -0.39406362788451 0.0
    vertex 29.57121587285605 4.818436372115491 0.0
    vertex 30.02810691282499 4.223004376204167 0.0
  endloop
endfacet
facet normal 0.0 0.0 -1.0
  outer loop
    vertex 32.061038908736315 -0.39406362788451 0.0
    vertex 30.02810691282499 4.223004376204167 0.0
    vertex 30.62353890873631 3.76611333623523 0.0
  endloop
endfacet
facet normal 0.0 0.0 -1.0
  outer loop
    vertex 32.061038908736315 -0.39406362788451 0.0
    vertex 30.62353890873631 3.76611333623523 0.0
    vertex 31.316934154066562 3.4788996215344197 0.0
  endloop
endfacet
facet normal 0.0 0.0 -1.0
  outer loop
    vertex 32.061038908736315 -0.39406362788451 0.0
    vertex 31.316934154066562 3.4788996215344197 0.0
    vertex 32.061038908736315 3.38093637211549 0.0
  endloop
endfacet
facet normal 0.0 0.0 -1.0
  outer loop
    vertex 32.061038908736315 -0.39406362788451 0.0
    vertex 32.061038908736315 3.38093637211549 0.0
    vertex 32.80514366340606 3.4788996215344183 0.0
  endloop
endfacet
facet normal 0.0 0.0 -1.0
  outer loop
    vertex 32.061038908736315 -0.39406362788451 0.0
    vertex 32.80514366340606 3.4788996215344183 0.0
    vertex 57.061038908736315 6.255936372115491 0.0
  endloop
endfacet
facet normal 0.0 0.0 -1.0
  outer loop
    vertex 57.061038908736315 6.255936372115491 0.0
    vertex 32.80514366340606 3.4788996215344183 0.0
    vertex 33.498538908736315 3.766113336235228 0.0
  endloop
endfacet
facet normal 0.0 0.0 -1.0
  outer loop
    vertex 57.061038908736315 6.255936372115491 0.0
    vertex 33.498538908736315 3.766113336235228 0.0
    vertex 34.093970904647634 4.223004376204165 0.0
  endloop
endfacet
facet normal 0.0 0.0 -1.0
  outer loop
    vertex 57.061038908736315 6.255936372115491 0.0
    vertex 34.093970904647634 4.223004376204165 0.0
    vertex 34.55086194461658 4.818436372115489 0.0
  endloop
endfacet
facet normal 0.0 0.0 -1.0
  outer loop
    vertex 57.061038908736315 6.255936372115491 0.0
    vertex 34.55086194461658 4.818436372115489 0.0
    vertex 34.83807565931738 5.511831617445741 0.0
  endloop
endfacet
facet normal 0.0 0.0 -1.0
  outer loop
    vertex 57.061038908736315 6.255936372115491 0.0
    vertex 34.83807565931738 5.511831617445741 0.0
    vertex 34.936038908736315 6.255936372115491 0.0
  endloop
endfacet
facet normal -0.0 -0.0 1.0
  outer loop
    vertex 7.061038908736312 6.255936372115491 3.15
    vertex 29.284002158155243 5.511831617445744 3.15
    vertex 29.18603890873631 6.255936372115491 3.15
  endloop
endfacet
facet normal -0.0 -0.0 1.0
  outer loop
    vertex 29.284002158155243 5.511831617445744 3.15
    vertex 7.061038908736312 6.255936372115491 3.15
    vertex 29.57121587285605 4.818436372115491 3.15
  endloop
endfacet
facet normal -0.0 -0.0 1.0
  outer loop
    vertex 29.57121587285605 4.818436372115491 3.15
    vertex 7.061038908736312 6.255936372115491 3.15
    vertex 32.061038908736315 -0.39406362788451 3.15
  endloop
endfacet
facet normal -0.0 -0.0 1.0
  outer loop
    vertex 29.57121587285605 4.818436372115491 3.15
    vertex 32.061038908736315 -0.39406362788451 3.15
    vertex 30.02810691282499 4.223004376204167 3.15
  endloop
endfacet
facet normal -0.0 -0.0 1.0
  outer loop
    vertex 30.02810691282499 4.223004376204167 3.15
    vertex 32.061038908736315 -0.39406362788451 3.15
    vertex 30.62353890873631 3.76611333623523 3.15
  endloop
endfacet
facet normal -0.0 -0.0 1.0
  outer loop
    vertex 30.62353890873631 3.76611333623523 3.15
    vertex 32.061038908736315 -0.39406362788451 3.15
    vertex 31.316934154066562 3.4788996215344197 3.15
  endloop
endfacet
facet normal -0.0 -0.0 1.0
  outer loop
    vertex 31.316934154066562 3.4788996215344197 3.15
    vertex 32.061038908736315 -0.39406362788451 3.15
    vertex 32.061038908736315 3.38093637211549 3.15
  endloop
endfacet
facet normal -0.0 -0.0 1.0
  outer loop
    vertex 32.061038908736315 3.38093637211549 3.15
    vertex 32.061038908736315 -0.39406362788451 3.15
    vertex 57.061038908736315 6.255936372115491 3.15
  endloop
endfacet
facet normal -0.0 -0.0 1.0
  outer loop
    vertex 32.061038908736315 3.38093637211549 3.15
    vertex 57.061038908736315 6.255936372115491 3.15
    vertex 32.80514366340606 3.4788996215344183 3.15
  endloop
endfacet
facet normal -0.0 -0.0 1.0
  outer loop
    vertex 32.80514366340606 3.4788996215344183 3.15
    vertex 57.061038908736315 6.255936372115491 3.15
    vertex 33.498538908736315 3.766113336235228 3.15
  endloop
endfacet
facet normal -0.0 -0.0 1.0
  outer loop
    vertex 33.498538908736315 3.766113336235228 3.15
    vertex 57.061038908736315 6.255936372115491 3.15
    vertex 34.093970904647634 4.223004376204165 3.15
  endloop
endfacet
facet normal -0.0 -0.0 1.0
  outer loop
    vertex 34.093970904647634 4.223004376204165 3.15
    vertex 57.061038908736315 6.255936372115491 3.15
    vertex 34.55086194461658 4.818436372115489 3.15
  endloop
endfacet
facet normal -0.0 -0.0 1.0
  outer loop
    vertex 34.55086194461658 4.818436372115489 3.15
    vertex 57.061038908736315 6.255936372115491 3.15
    vertex 34.83807565931738 5.511831617445741 3.15
  endloop
endfacet
facet normal -0.0 -0.0 1.0
  outer loop
    vertex 34.83807565931738 5.511831617445741 3.15
    vertex 57.061038908736315 6.255936372115491 3.15
    vertex 34.936038908736315 6.255936372115491 3.15
  endloop
endfacet
facet normal -0.0 -0.0 1.0
  outer loop
    vertex 7.061038908736312 6.255936372115491 3.15
    vertex 29.57121587285605 7.693436372115492 3.15
    vertex 32.061038908736315 12.90593637211549 3.15
  endloop
endfacet
facet normal -0.0 -0.0 1.0
  outer loop
    vertex 29.57121587285605 7.693436372115492 3.15
    vertex 7.061038908736312 6.255936372115491 3.15
    vertex 29.284002158155243 7.00004112678524 3.15
  endloop
endfacet
facet normal -0.0 -0.0 1.0
  outer loop
    vertex 29.284002158155243 7.00004112678524 3.15
    vertex 7.061038908736312 6.255936372115491 3.15
    vertex 29.18603890873631 6.255936372115491 3.15
  endloop
endfacet
facet normal -0.0 -0.0 1.0
  outer loop
    vertex 32.061038908736315 12.90593637211549 3.15
    vertex 29.57121587285605 7.693436372115492 3.15
    vertex 30.02810691282499 8.288868368026815 3.15
  endloop
endfacet
facet normal -0.0 -0.0 1.0
  outer loop
    vertex 32.061038908736315 12.90593637211549 3.15
    vertex 30.02810691282499 8.288868368026815 3.15
    vertex 30.62353890873631 8.745759407995752 3.15
  endloop
endfacet
facet normal -0.0 -0.0 1.0
  outer loop
    vertex 32.061038908736315 12.90593637211549 3.15
    vertex 30.62353890873631 8.745759407995752 3.15
    vertex 31.316934154066566 9.032973122696562 3.15
  endloop
endfacet
facet normal -0.0 -0.0 1.0
  outer loop
    vertex 32.061038908736315 12.90593637211549 3.15
    vertex 31.316934154066566 9.032973122696562 3.15
    vertex 32.061038908736315 9.13093637211549 3.15
  endloop
endfacet
facet normal -0.0 -0.0 1.0
  outer loop
    vertex 32.061038908736315 12.90593637211549 3.15
    vertex 32.061038908736315 9.13093637211549 3.15
    vertex 32.80514366340606 9.032973122696562 3.15
  endloop
endfacet
facet normal -0.0 -0.0 1.0
  outer loop
    vertex 32.061038908736315 12.90593637211549 3.15
    vertex 32.80514366340606 9.032973122696562 3.15
    vertex 57.061038908736315 6.255936372115491 3.15
  endloop
endfacet
facet normal -0.0 -0.0 1.0
  outer loop
    vertex 57.061038908736315 6.255936372115491 3.15
    vertex 32.80514366340606 9.032973122696562 3.15
    vertex 33.498538908736315 8.74575940799575 3.15
  endloop
endfacet
facet normal -0.0 -0.0 1.0
  outer loop
    vertex 57.061038908736315 6.255936372115491 3.15
    vertex 33.498538908736315 8.74575940799575 3.15
    vertex 34.093970904647634 8.288868368026813 3.15
  endloop
endfacet
facet normal -0.0 -0.0 1.0
  outer loop
    vertex 57.061038908736315 6.255936372115491 3.15
    vertex 34.093970904647634 8.288868368026813 3.15
    vertex 34.55086194461658 7.693436372115491 3.15
  endloop
endfacet
facet normal -0.0 -0.0 1.0
  outer loop
    vertex 57.061038908736315 6.255936372115491 3.15
    vertex 34.55086194461658 7.693436372115491 3.15
    vertex 34.83807565931738 7.000041126785238 3.15
  endloop
endfacet
facet normal -0.0 -0.0 1.0
  outer loop
    vertex 57.061038908736315 6.255936372115491 3.15
    vertex 34.83807565931738 7.000041126785238 3.15
    vertex 34.936038908736315 6.255936372115491 3.15
  endloop
endfacet
facet normal 0.2570611098785942 0.9663951499195272 0.0
  outer loop
    vertex 32.061038908736315 12.90593637211549 3.15
    vertex 57.061038908736315 6.255936372115491 0.0
    vertex 32.061038908736315 12.90593637211549 0.0
  endloop
endfacet
facet normal 0.2570611098785942 0.9663951499195272 0.0
  outer loop
    vertex 57.061038908736315 6.255936372115491 0.0
    vertex 32.061038908736315 12.90593637211549 3.15
    vertex 57.061038908736315 6.255936372115491 3.15
  endloop
endfacet
facet normal 0.25706110987859426 -0.9663951499195272 0.0
  outer loop
    vertex 57.061038908736315 6.255936372115491 3.15
    vertex 32.061038908736315 -0.39406362788451 0.0
    vertex 57.061038908736315 6.255936372115491 0.0
  endloop
endfacet
facet normal 0.25706110987859426 -0.9663951499195272 0.0
  outer loop
    vertex 32.061038908736315 -0.39406362788451 0.0
    vertex 57.061038908736315 6.255936372115491 3.15
    vertex 32.061038908736315 -0.39406362788451 3.15
  endloop
endfacet
facet normal -0.25706110987859426 -0.9663951499195272 -0.0
  outer loop
    vertex 32.061038908736315 -0.39406362788451 3.15
    vertex 7.061038908736312 6.255936372115491 0.0
    vertex 32.061038908736315 -0.39406362788451 0.0
  endloop
endfacet
facet normal -0.25706110987859426 -0.9663951499195272 -0.0
  outer loop
    vertex 7.061038908736312 6.255936372115491 0.0
    vertex 32.061038908736315 -0.39406362788451 3.15
    vertex 7.061038908736312 6.255936372115491 3.15
  endloop
endfacet
facet normal -0.2570611098785942 0.9663951499195272 0.0
  outer loop
    vertex 7.061038908736312 6.255936372115491 3.15
    vertex 32.061038908736315 12.90593637211549 0.0
    vertex 7.061038908736312 6.255936372115491 0.0
  endloop
endfacet
facet normal -0.2570611098785942 0.9663951499195272 0.0
  outer loop
    vertex 32.061038908736315 12.90593637211549 0.0
    vertex 7.061038908736312 6.255936372115491 3.15
    vertex 32.061038908736315 12.90593637211549 3.15
  endloop
endfacet
facet normal -0.99144486137381 0.13052619222005413 0.0
  outer loop
    vertex 34.936038908736315 6.255936372115491 3.15
    vertex 34.83807565931738 5.511831617445741 0.0
    vertex 34.83807565931738 5.511831617445741 3.15
  endloop
endfacet
facet normal -0.99144486137381 0.13052619222005413 0.0
  outer loop
    vertex 34.83807565931738 5.511831617445741 0.0
    vertex 34.936038908736315 6.255936372115491 3.15
    vertex 34.936038908736315 6.255936372115491 0.0
  endloop
endfacet
facet normal -0.99144486137381 -0.1305261922200545 -0.0
  outer loop
    vertex 34.83807565931738 7.000041126785238 3.15
    vertex 34.936038908736315 6.255936372115491 0.0
    vertex 34.936038908736315 6.255936372115491 3.15
  endloop
endfacet
facet normal -0.99144486137381 -0.1305261922200545 -0.0
  outer loop
    vertex 34.936038908736315 6.255936372115491 0.0
    vertex 34.83807565931738 7.000041126785238 3.15
    vertex 34.83807565931738 7.000041126785238 0.0
  endloop
endfacet
facet normal -0.9238795325112887 -0.3826834323650851 -0.0
  outer loop
    vertex 34.55086194461658 7.693436372115491 3.15
    vertex 34.83807565931738 7.000041126785238 0.0
    vertex 34.83807565931738 7.000041126785238 3.15
  endloop
endfacet
facet normal -0.9238795325112887 -0.3826834323650851 -0.0
  outer loop
    vertex 34.83807565931738 7.000041126785238 0.0
    vertex 34.55086194461658 7.693436372115491 3.15
    vertex 34.55086194461658 7.693436372115491 0.0
  endloop
endfacet
facet normal -0.7933533402912331 -0.6087614290087235 -0.0
  outer loop
    vertex 34.093970904647634 8.288868368026813 3.15
    vertex 34.55086194461658 7.693436372115491 0.0
    vertex 34.55086194461658 7.693436372115491 3.15
  endloop
endfacet
facet normal -0.7933533402912331 -0.6087614290087235 -0.0
  outer loop
    vertex 34.55086194461658 7.693436372115491 0.0
    vertex 34.093970904647634 8.288868368026813 3.15
    vertex 34.093970904647634 8.288868368026813 0.0
  endloop
endfacet
facet normal -0.6087614290087212 -0.7933533402912349 -0.0
  outer loop
    vertex 34.093970904647634 8.288868368026813 3.15
    vertex 33.498538908736315 8.74575940799575 0.0
    vertex 34.093970904647634 8.288868368026813 0.0
  endloop
endfacet
facet normal -0.6087614290087212 -0.7933533402912349 -0.0
  outer loop
    vertex 33.498538908736315 8.74575940799575 0.0
    vertex 34.093970904647634 8.288868368026813 3.15
    vertex 33.498538908736315 8.74575940799575 3.15
  endloop
endfacet
facet normal -0.3826834323650909 -0.9238795325112863 -0.0
  outer loop
    vertex 33.498538908736315 8.74575940799575 3.15
    vertex 32.80514366340606 9.032973122696562 0.0
    vertex 33.498538908736315 8.74575940799575 0.0
  endloop
endfacet
facet normal -0.3826834323650909 -0.9238795325112863 -0.0
  outer loop
    vertex 32.80514366340606 9.032973122696562 0.0
    vertex 33.498538908736315 8.74575940799575 3.15
    vertex 32.80514366340606 9.032973122696562 3.15
  endloop
endfacet
facet normal -0.13052619222005105 -0.9914448613738105 -0.0
  outer loop
    vertex 32.80514366340606 9.032973122696562 3.15
    vertex 32.061038908736315 9.13093637211549 0.0
    vertex 32.80514366340606 9.032973122696562 0.0
  endloop
endfacet
facet normal -0.13052619222005105 -0.9914448613738105 -0.0
  outer loop
    vertex 32.061038908736315 9.13093637211549 0.0
    vertex 32.80514366340606 9.032973122696562 3.15
    vertex 32.061038908736315 9.13093637211549 3.15
  endloop
endfacet
facet normal 0.13052619222005105 -0.9914448613738105 0.0
  outer loop
    vertex 32.061038908736315 9.13093637211549 3.15
    vertex 31.316934154066566 9.032973122696562 0.0
    vertex 32.061038908736315 9.13093637211549 0.0
  endloop
endfacet
facet normal 0.13052619222005105 -0.9914448613738105 0.0
  outer loop
    vertex 31.316934154066566 9.032973122696562 0.0
    vertex 32.061038908736315 9.13093637211549 3.15
    vertex 31.316934154066566 9.032973122696562 3.15
  endloop
endfacet
facet normal 0.3826834323650892 -0.923879532511287 0.0
  outer loop
    vertex 31.316934154066566 9.032973122696562 3.15
    vertex 30.62353890873631 8.745759407995752 0.0
    vertex 31.316934154066566 9.032973122696562 0.0
  endloop
endfacet
facet normal 0.3826834323650892 -0.923879532511287 0.0
  outer loop
    vertex 30.62353890873631 8.745759407995752 0.0
    vertex 31.316934154066566 9.032973122696562 3.15
    vertex 30.62353890873631 8.745759407995752 3.15
  endloop
endfacet
facet normal 0.6087614290087212 -0.7933533402912349 0.0
  outer loop
    vertex 30.62353890873631 8.745759407995752 3.15
    vertex 30.02810691282499 8.288868368026815 0.0
    vertex 30.62353890873631 8.745759407995752 0.0
  endloop
endfacet
facet normal 0.6087614290087212 -0.7933533402912349 0.0
  outer loop
    vertex 30.02810691282499 8.288868368026815 0.0
    vertex 30.62353890873631 8.745759407995752 3.15
    vertex 30.02810691282499 8.288868368026815 3.15
  endloop
endfacet
facet normal 0.7933533402912331 -0.6087614290087235 0.0
  outer loop
    vertex 30.02810691282499 8.288868368026815 0.0
    vertex 29.57121587285605 7.693436372115492 3.15
    vertex 29.57121587285605 7.693436372115492 0.0
  endloop
endfacet
facet normal 0.7933533402912331 -0.6087614290087235 0.0
  outer loop
    vertex 29.57121587285605 7.693436372115492 3.15
    vertex 30.02810691282499 8.288868368026815 0.0
    vertex 30.02810691282499 8.288868368026815 3.15
  endloop
endfacet
facet normal 0.9238795325112887 -0.3826834323650851 0.0
  outer loop
    vertex 29.57121587285605 7.693436372115492 0.0
    vertex 29.284002158155243 7.00004112678524 3.15
    vertex 29.284002158155243 7.00004112678524 0.0
  endloop
endfacet
facet normal 0.9238795325112887 -0.3826834323650851 0.0
  outer loop
    vertex 29.284002158155243 7.00004112678524 3.15
    vertex 29.57121587285605 7.693436372115492 0.0
    vertex 29.57121587285605 7.693436372115492 3.15
  endloop
endfacet
facet normal 0.9914448613738102 -0.13052619222005424 0.0
  outer loop
    vertex 29.284002158155243 7.00004112678524 0.0
    vertex 29.18603890873631 6.255936372115491 3.15
    vertex 29.18603890873631 6.255936372115491 0.0
  endloop
endfacet
facet normal 0.9914448613738102 -0.13052619222005424 0.0
  outer loop
    vertex 29.18603890873631 6.255936372115491 3.15
    vertex 29.284002158155243 7.00004112678524 0.0
    vertex 29.284002158155243 7.00004112678524 3.15
  endloop
endfacet
facet normal 0.99144486137381 0.13052619222005474 0.0
  outer loop
    vertex 29.18603890873631 6.255936372115491 0.0
    vertex 29.284002158155243 5.511831617445744 3.15
    vertex 29.284002158155243 5.511831617445744 0.0
  endloop
endfacet
facet normal 0.99144486137381 0.13052619222005474 0.0
  outer loop
    vertex 29.284002158155243 5.511831617445744 3.15
    vertex 29.18603890873631 6.255936372115491 0.0
    vertex 29.18603890873631 6.255936372115491 3.15
  endloop
endfacet
facet normal 0.9238795325112888 0.38268343236508484 0.0
  outer loop
    vertex 29.284002158155243 5.511831617445744 0.0
    vertex 29.57121587285605 4.818436372115491 3.15
    vertex 29.57121587285605 4.818436372115491 0.0
  endloop
endfacet
facet normal 0.9238795325112888 0.38268343236508484 0.0
  outer loop
    vertex 29.57121587285605 4.818436372115491 3.15
    vertex 29.284002158155243 5.511831617445744 0.0
    vertex 29.284002158155243 5.511831617445744 3.15
  endloop
endfacet
facet normal 0.7933533402912334 0.608761429008723 0.0
  outer loop
    vertex 29.57121587285605 4.818436372115491 0.0
    vertex 30.02810691282499 4.223004376204167 3.15
    vertex 30.02810691282499 4.223004376204167 0.0
  endloop
endfacet
facet normal 0.7933533402912334 0.608761429008723 0.0
  outer loop
    vertex 30.02810691282499 4.223004376204167 3.15
    vertex 29.57121587285605 4.818436372115491 0.0
    vertex 29.57121587285605 4.818436372115491 3.15
  endloop
endfacet
facet normal 0.6087614290087212 0.7933533402912349 0.0
  outer loop
    vertex 30.02810691282499 4.223004376204167 3.15
    vertex 30.62353890873631 3.76611333623523 0.0
    vertex 30.02810691282499 4.223004376204167 0.0
  endloop
endfacet
facet normal 0.6087614290087212 0.7933533402912349 0.0
  outer loop
    vertex 30.62353890873631 3.76611333623523 0.0
    vertex 30.02810691282499 4.223004376204167 3.15
    vertex 30.62353890873631 3.76611333623523 3.15
  endloop
endfacet
facet normal 0.382683432365092 0.923879532511286 0.0
  outer loop
    vertex 30.62353890873631 3.76611333623523 3.15
    vertex 31.316934154066562 3.4788996215344197 0.0
    vertex 30.62353890873631 3.76611333623523 0.0
  endloop
endfacet
facet normal 0.382683432365092 0.923879532511286 0.0
  outer loop
    vertex 31.316934154066562 3.4788996215344197 0.0
    vertex 30.62353890873631 3.76611333623523 3.15
    vertex 31.316934154066562 3.4788996215344197 3.15
  endloop
endfacet
facet normal 0.13052619222005193 0.9914448613738105 0.0
  outer loop
    vertex 31.316934154066562 3.4788996215344197 3.15
    vertex 32.061038908736315 3.38093637211549 0.0
    vertex 31.316934154066562 3.4788996215344197 0.0
  endloop
endfacet
facet normal 0.13052619222005193 0.9914448613738105 0.0
  outer loop
    vertex 32.061038908736315 3.38093637211549 0.0
    vertex 31.316934154066562 3.4788996215344197 3.15
    vertex 32.061038908736315 3.38093637211549 3.15
  endloop
endfacet
facet normal -0.13052619222005105 0.9914448613738105 0.0
  outer loop
    vertex 32.061038908736315 3.38093637211549 3.15
    vertex 32.80514366340606 3.4788996215344183 0.0
    vertex 32.061038908736315 3.38093637211549 0.0
  endloop
endfacet
facet normal -0.13052619222005105 0.9914448613738105 0.0
  outer loop
    vertex 32.80514366340606 3.4788996215344183 0.0
    vertex 32.061038908736315 3.38093637211549 3.15
    vertex 32.80514366340606 3.4788996215344183 3.15
  endloop
endfacet
facet normal -0.38268343236508845 0.9238795325112873 0.0
  outer loop
    vertex 32.80514366340606 3.4788996215344183 3.15
    vertex 33.498538908736315 3.766113336235228 0.0
    vertex 32.80514366340606 3.4788996215344183 0.0
  endloop
endfacet
facet normal -0.38268343236508845 0.9238795325112873 0.0
  outer loop
    vertex 33.498538908736315 3.766113336235228 0.0
    vertex 32.80514366340606 3.4788996215344183 3.15
    vertex 33.498538908736315 3.766113336235228 3.15
  endloop
endfacet
facet normal -0.6087614290087218 0.7933533402912344 0.0
  outer loop
    vertex 33.498538908736315 3.766113336235228 3.15
    vertex 34.093970904647634 4.223004376204165 0.0
    vertex 33.498538908736315 3.766113336235228 0.0
  endloop
endfacet
facet normal -0.6087614290087218 0.7933533402912344 0.0
  outer loop
    vertex 34.093970904647634 4.223004376204165 0.0
    vertex 33.498538908736315 3.766113336235228 3.15
    vertex 34.093970904647634 4.223004376204165 3.15
  endloop
endfacet
facet normal -0.7933533402912331 0.6087614290087235 0.0
  outer loop
    vertex 34.55086194461658 4.818436372115489 3.15
    vertex 34.093970904647634 4.223004376204165 0.0
    vertex 34.093970904647634 4.223004376204165 3.15
  endloop
endfacet
facet normal -0.7933533402912331 0.6087614290087235 0.0
  outer loop
    vertex 34.093970904647634 4.223004376204165 0.0
    vertex 34.55086194461658 4.818436372115489 3.15
    vertex 34.55086194461658 4.818436372115489 0.0
  endloop
endfacet
facet normal -0.9238795325112885 0.38268343236508545 0.0
  outer loop
    vertex 34.83807565931738 5.511831617445741 3.15
    vertex 34.55086194461658 4.818436372115489 0.0
    vertex 34.55086194461658 4.818436372115489 3.15
  endloop
endfacet
facet normal -0.9238795325112885 0.38268343236508545 0.0
  outer loop
    vertex 34.55086194461658 4.818436372115489 0.0
    vertex 34.83807565931738 5.511831617445741 3.15
    vertex 34.83807565931738 5.511831617445741 0.0
  endloop
endfacet
endsolid Untitled-5a15c73e
